<?xml version="1.0" encoding="UTF-8" standalone="no"?>
<!-- Created with Inkscape (http://www.inkscape.org/) -->

<svg
   xmlns:dc="http://purl.org/dc/elements/1.1/"
   xmlns:cc="http://creativecommons.org/ns#"
   xmlns:rdf="http://www.w3.org/1999/02/22-rdf-syntax-ns#"
   xmlns:svg="http://www.w3.org/2000/svg"
   xmlns="http://www.w3.org/2000/svg"
   xmlns:xlink="http://www.w3.org/1999/xlink"
   xmlns:sodipodi="http://sodipodi.sourceforge.net/DTD/sodipodi-0.dtd"
   xmlns:inkscape="http://www.inkscape.org/namespaces/inkscape"
   width="163mm"
   height="188mm"
   viewBox="0 0 577.55906 666.14173"
   id="svg6073"
   version="1.1"
   inkscape:version="0.92.2 (5c3e80d, 2017-08-06)"
   sodipodi:docname="Lion of Katzenelnbogen (crowned).svg">
  <defs
     id="defs6075">
    <linearGradient
       id="linearGradient2893">
      <stop
         offset="0"
         style="stop-color:#ffffff;stop-opacity:0.3137255"
         id="stop2895" />
      <stop
         offset="0.19"
         style="stop-color:#ffffff;stop-opacity:0.25098041"
         id="stop2897" />
      <stop
         offset="0.60000002"
         style="stop-color:#6b6b6b;stop-opacity:0.1254902"
         id="stop2901" />
      <stop
         offset="1"
         style="stop-color:#000000;stop-opacity:0.1254902"
         id="stop2899" />
    </linearGradient>
    <radialGradient
       gradientTransform="matrix(1.551284,0,0,1.350335,-227.8943,-51.2635)"
       gradientUnits="userSpaceOnUse"
       xlink:href="#linearGradient2893"
       id="radialGradient11919"
       fy="200.44757"
       fx="285.18573"
       r="300"
       cy="200.44757"
       cx="285.18573" />
    <clipPath
       id="clipPath6905">
      <path
         style="color:#000000;fill:#2b5df2;fill-opacity:1;fill-rule:nonzero;stroke:none;stroke-width:2;marker:none;visibility:visible;display:inline;overflow:visible;enable-background:accumulate"
         id="path6907"
         d="m 149.91337,293.92264 c 150.17203,0 150.17203,0 150.17203,0 l 0.0236,-146.18949 -149.86594,-0.1394 -0.3298,146.32887 z" />
    </clipPath>
  </defs>
  <sodipodi:namedview
     id="base"
     pagecolor="#ffffff"
     bordercolor="#666666"
     borderopacity="1.0"
     inkscape:pageopacity="0.0"
     inkscape:pageshadow="2"
     inkscape:zoom="1.061148"
     inkscape:cx="308.0315"
     inkscape:cy="355.27559"
     inkscape:document-units="px"
     inkscape:current-layer="layer1"
     showgrid="false"
     inkscape:window-width="1920"
     inkscape:window-height="986"
     inkscape:window-x="-11"
     inkscape:window-y="-11"
     inkscape:window-maximized="1" />
  <metadata
     id="metadata6078">
    <rdf:RDF>
      <cc:Work
         rdf:about="">
        <dc:format>image/svg+xml</dc:format>
        <dc:type
           rdf:resource="http://purl.org/dc/dcmitype/StillImage" />
        <dc:title></dc:title>
      </cc:Work>
    </rdf:RDF>
  </metadata>
  <g
     inkscape:label="Layer 1"
     inkscape:groupmode="layer"
     id="layer1"
     transform="translate(0,-386.22048)">
    <path
       style="opacity:1;fill:#ffff00;fill-opacity:1;fill-rule:nonzero;stroke:#000000;stroke-width:3;stroke-linecap:round;stroke-miterlimit:4;stroke-dasharray:none;stroke-opacity:1"
       d="M 5.6008341,394.3442 H 571.95821 v 258.58398 c 0,285.48607 -283.17773,397.82032 -283.17773,397.82032 0,0 -196.715547,-78.03562 -262.234347,-269.31837 C 13.455134,743.21078 5.6008341,700.47063 5.6008341,652.92818 Z"
       id="rect8179-5"
       inkscape:connector-curvature="0"
       sodipodi:nodetypes="ccscssc" />
    <g
       style="display:inline;fill:#ffffff;stroke:#000000;stroke-width:0.66307402;stroke-miterlimit:4;stroke-dasharray:none;stroke-opacity:1"
       id="g6249-1-4-9-6-0"
       transform="matrix(1.1100323,0,0,1.1233144,1.2776386,373.9874)">
      <path
         style="color:#000000;display:inline;overflow:visible;visibility:visible;fill:#e20909;fill-opacity:1;fill-rule:evenodd;stroke:#000000;stroke-width:1.25934315;stroke-linecap:butt;stroke-linejoin:miter;stroke-miterlimit:4;stroke-dasharray:none;stroke-dashoffset:0;stroke-opacity:1;marker:none;enable-background:accumulate"
         id="path504-4-8-2"
         d="m 360.41321,336.26916 c 5.70881,-0.23797 11.87795,-6.47607 21.67859,4.36627 2.039,-4.05938 1.83451,-9.29436 -2.6892,-12.43643 6.65682,-4.26565 13.80321,-15.28103 15.81094,-21.89145 2.61591,-8.61317 4.27092,-18.68139 11.19219,-21.17308 3.6721,-1.32196 7.10994,1.28348 6.79383,5.74033 -0.68619,9.67429 -4.08302,7.59332 -7.68245,20.65345 -1.35156,4.90379 1.31667,12.59701 12.80649,10.89928 -4.86355,-2.21593 -5.12067,-5.14268 -4.59567,-9.01089 0.9114,-6.71574 12.74787,-14.58059 13.98587,-25.61265 1.45601,-12.97654 -9.28274,-18.81546 -14.61142,-19.317 -7.13499,-0.67157 -15.82911,3.76316 -21.08324,12.56399 -2.77616,-12.81664 6.30537,-25.28258 16.15245,-31.24462 8.25072,-4.99561 17.62157,-9.36814 22.21342,-16.56487 5.17707,-8.11412 4.13548,-18.32421 -1.1757,-23.3543 -0.27134,4.85331 -3.71373,13.00497 -14.02206,18.22367 -12.5135,6.33514 -24.61094,9.97046 -34.71551,28.02441 -2.1203,-32.30062 32.96239,-44.89016 47.53811,-54.89015 18.09055,-12.41148 12.18198,-39.4564 6.69092,-43.14854 0.31785,4.52897 0.50779,11.61951 -4.95798,20.00563 -6.32226,9.70021 -17.3767,14.09757 -30.71544,21.34395 -13.2655,7.20659 -24.27818,18.71929 -29.50096,30.80021 -1.44,-8.15356 4.67556,-19.96417 12.37836,-28.23514 7.97846,-8.56674 17.50972,-16.07693 22.93026,-20.61374 10.7964,-9.03648 26.52479,-21.54472 28.15725,-48.97241 1.15202,-19.2897 -8.56989,-32.797378 -22.19934,-38.435238 -7.9934,-3.30635 -19.7115,-3.80152 -27.78084,-2.01502 -4.04853,0.89631 -8.08458,2.27512 -11.8742,4.52388 -2.6683,1.58333 -7.27206,0.60894 -6.80898,-3.98884 0.54573,-5.41808 8.38128,-5.81765 9.21585,-12.16714 0.68839,-5.23795 -3.34434,-9.44901 -7.61189,-11.5322 1.06812,3.20842 -0.0901,6.93107 -2.32927,10.64439 -2.91851,4.83985 -9.52788,4.32439 -10.38847,13.48192 -0.42648,4.58024 2.6676,9.743748 7.0577,11.025528 0.52044,0.31425 1.39327,1.00666 1.02233,1.50926 -4.84525,6.56476 -5.72138,15.24965 -5.23057,21.27264 0.81966,10.05799 4.34289,13.6032 4.38838,22.91771 0.015,2.90328 0.0103,11.27508 -3.52749,16.79367 -4.36079,6.80274 -8.09361,9.49837 -12.24937,11.64141 5.86317,0.36324 12.13099,-0.97974 16.51811,-2.6604 8.10901,-3.10653 14.99065,-12.99748 16.35917,-19.55496 0.91118,-4.36629 0.70583,-8.44804 0.12476,-12.42443 3.96952,1.32564 10.88197,1.51476 15.71763,-1.64793 4.9656,-3.24759 7.71505,-10.26412 4.06323,-16.38338 -1.2613,6.20158 -5.45901,8.45115 -11.76053,8.69802 -5.99656,0.23494 -10.78966,-3.46329 -11.31315,-9.89324 -0.77158,-9.47705 7.3892,-16.38168 18.60714,-16.51331 14.86044,-0.17433 22.93402,10.59964 22.1454,24.69731 -0.79035,14.13085 -7.87852,24.53205 -17.90031,32.94283 -8.61004,7.22601 -17.67052,14.24539 -26.63077,23.0265 -6.98832,6.84868 -20.755,21.36747 -21.21668,40.61806 -0.34225,14.2653 3.86031,25.80072 10.43552,36.19377 6.57521,10.39311 10.47016,19.05175 13.27515,27.11081 3.37147,9.687 1.7917,22.90634 -7.7108,26.61363 -9.84274,3.84007 -23.20446,-1.97796 -27.9472,-14.65625 -1.68706,9.26465 -3.98804,28.42724 5.51313,27.70955 5.75336,1.95639 10.93568,4.56739 17.45739,4.29553 z"
         inkscape:connector-curvature="0" />
      <g
         style="display:inline;fill:#fcef3c;fill-opacity:1;stroke:#000000;stroke-width:2.75286531;stroke-miterlimit:4;stroke-dasharray:none;stroke-opacity:1"
         id="g3019-8-9-9-1-1"
         transform="matrix(0.91786443,0.07356898,-0.07452327,0.90603707,45.587548,38.944732)">
        <path
           style="color:#000000;display:inline;overflow:visible;visibility:visible;fill:#2b5df2;fill-opacity:1;fill-rule:evenodd;stroke:#000000;stroke-width:1.04374456;stroke-linecap:butt;stroke-linejoin:miter;stroke-miterlimit:4;stroke-dasharray:none;stroke-dashoffset:0;stroke-opacity:1;marker:none;enable-background:accumulate"
           id="path3021-8-3-7-2-9"
           transform="matrix(0.8777261,-0.04922101,0.04922749,0.87784181,-31.86506,-17.783938)"
           d="m 100.40625,63.09375 c -10.113654,0.19203 -15.591483,8.078624 -17.03125,10.9375 17.97155,-2.722417 16.410522,2.559702 19.71875,13.25 L 118.6875,80.75 C 117.27496,75.131415 114.79897,66.010727 106.5,63.84375 c -2.19593,-0.573387 -4.22085,-0.785561 -6.09375,-0.75 z m 37.90625,0.4375 c -3.39928,-0.06703 -6.72918,0.90733 -9.125,2.65625 7.04417,2.51379 10.92766,5.505854 7.40625,17.15625 l 13.34375,8.875 c 3.32775,-4.026231 6.82371,-13.231177 0.125,-22.71875 -2.86723,-4.06094 -7.3795,-5.882574 -11.75,-5.96875 z M 78.625,87.5625 C 72.58623,87.380704 65.348445,91.266274 62.375,106.03125 78.096325,94.1617 78.159406,105.60542 86.03125,113.25 l 10.625,-18.09375 c 0,0 -6.036136,-4.281416 -14.09375,-6.90625 -1.198377,-0.390381 -2.543938,-0.645547 -3.9375,-0.6875 z m 32.65625,58.5625 c -6.58244,10.64902 -15.364088,11.32903 -26.8125,5.84375 7.306985,21.35304 23.8677,21.13198 38.875,9.1875 z"
           inkscape:connector-curvature="0" />
        <path
           style="color:#000000;display:inline;overflow:visible;visibility:visible;fill:#e20909;fill-opacity:1;fill-rule:evenodd;stroke:#000000;stroke-width:1.37643266;stroke-linecap:butt;stroke-linejoin:miter;stroke-miterlimit:4;stroke-dasharray:none;stroke-dashoffset:0;stroke-opacity:1;marker:none;enable-background:accumulate"
           id="path3029-2-4-3-5-8"
           d="m 98.500709,125.34746 c 0.88889,5.2289 4.910771,12.55632 3.959011,18.97791 3.50256,-3.89576 6.61747,-8.7125 6.65116,-13.63794 6.55475,9.62818 0.39257,24.3043 1.84003,35.24775 2.62357,-4.04816 9.27731,-10.23654 10.46505,-15.43766 6.78129,12.0134 -6.142,15.90635 2.69376,40.02754 1.65378,-9.10276 7.09173,-16.96108 9.13492,-23.27594 3.32446,16.80134 20.52506,26.67692 29.47706,23.12148 23.27955,25.7437 47.76019,12.99651 44.11117,-16.76576 0,0 -0.24188,-41.27426 -5.69603,-44.65483 -5.92248,-3.67085 -36.56395,-7.95101 -45.09085,-12.46808 -9.62392,-5.09821 -17.514,-9.17816 -25.14265,-15.16679 -7.62865,-5.988662 -11.52232,-11.601098 -16.54382,-15.833403 -7.06935,-5.958319 -11.99981,-12.81212 -12.41068,-16.147276 -0.50275,-4.080989 3.37322,-5.50043 4.31579,-12.122321 1.12156,-7.879327 -7.502758,-15.531612 -14.804024,-13.781373 -4.162382,0.997795 -3.978014,8.880724 -6.125479,10.644356 -0.506187,0.415712 -1.138493,0.596782 -1.982763,0.422568 -4.426031,-0.913308 -1.888526,-13.769181 -8.913975,-13.698927 -7.025459,0.07025 -12.420462,2.647279 -15.639818,9.805612 -2.587905,5.754282 8.236187,8.657286 8.895094,11.860954 0.147688,0.718075 -1.291513,1.893496 -2.031211,1.935404 -0.488313,0.02766 -8.665811,-7.470167 -14.389728,-5.030714 -4.460463,1.900987 -8.996275,7.679584 -6.823204,15.007294 1.879055,6.336273 10.44943,6.103221 14.582211,6.208524 4.90019,0.124857 16.887848,13.111791 16.518836,19.431152 0.140507,5.05833 -7.503884,3.68389 -8.609232,9.58684 -1.417445,7.56966 5.048929,15.39893 11.485448,13.88352 4.81575,-1.13382 9.536236,-7.90739 11.73672,-8.29539 5.372736,-0.46635 7.351603,4.3497 8.337204,10.1555 z"
           inkscape:connector-curvature="0" />
      </g>
      <path
         style="color:#000000;display:inline;overflow:visible;visibility:visible;fill:#2b5df2;fill-opacity:1;fill-rule:evenodd;stroke:#000000;stroke-width:0.83956212;stroke-linecap:butt;stroke-linejoin:miter;stroke-miterlimit:4;stroke-dasharray:none;stroke-dashoffset:0;stroke-opacity:1;marker:none;enable-background:accumulate"
         id="path3031-4-4-7-0-9"
         d="m 129.93465,376.5156 c -5.79642,0.0225 -9.92282,4.28266 -10.40399,5.11468 10.64835,0.688 11.15355,4.82589 14.01479,12.18822 4.05989,-2.91273 7.64329,-5.40937 9.98985,-6.74884 0.20564,-1.69907 -2.36103,-6.71245 -8.39142,-9.40114 -1.8441,-0.8222 -3.58635,-1.15924 -5.20923,-1.15292 z m -12.98115,16.9433 c -1.18326,-0.0221 -2.38873,0.0912 -3.60398,0.41072 -8.89193,2.33875 -8.76227,9.02423 -8.88908,11.24808 9.84531,-4.72602 13.46324,6.8e-4 19.16525,4.67033 l 4.78886,-12.22371 c -1.75763,-1.21134 -6.33372,-4.00856 -11.46105,-4.10542 z m 12.2867,24.37444 c 0,0 -7.79128,-3.16405 -13.48616,0.0419 -6.13958,3.45605 -5.66666,11.58826 -4.50183,14.38177 5.21859,-7.54015 12.04407,-6.09007 17.14187,-2.54668 z m 21.85048,15.64267 c 1.60301,9.88303 -2.36816,11.46446 -9.2848,11.88791 2.34717,2.1264 10.20792,5.66704 15.41266,2.95378 5.71877,-2.98117 7.1751,-11.82911 6.60675,-12.05394 z"
         inkscape:connector-curvature="0" />
      <path
         style="color:#000000;display:inline;overflow:visible;visibility:visible;fill:#e20909;fill-opacity:1;fill-rule:evenodd;stroke:#000000;stroke-width:1.25934315;stroke-linecap:butt;stroke-linejoin:miter;stroke-miterlimit:4;stroke-dasharray:none;stroke-dashoffset:0;stroke-opacity:1;marker:none;enable-background:accumulate"
         id="path3039-5-6-2-9-7"
         d="m 214.32514,302.34318 c -18.19221,-0.007 -29.46972,11.98495 -31.80131,25.36526 -1.00053,5.74286 -1.94617,9.67279 -4.66552,11.93312 -6.67015,5.54434 -17.39183,6.71795 -18.39088,6.34844 6.40669,7.53624 12.07417,10.05939 20.61929,8.22956 -1.78004,9.2774 6.86561,20.78655 11.33108,30.28671 1.50757,3.20751 -6.06767,5.46817 -15.17238,7.01112 -2.963,0.50213 -8.7747,4.10498 -11.62209,4.88859 -2.94904,0.81156 -7.40265,0.52837 -9.11291,-0.51523 -1.76782,-1.07877 -8.14574,-8.17718 -12.99093,-9.74858 -4.50887,-1.46227 -10.15373,-0.6241 -11.20224,3.00168 -1.67024,5.78526 6.12053,8.09921 7.15926,10.14461 1.00451,1.9782 -0.72277,3.56119 -2.18339,2.73123 -1.73318,-0.98468 -7.3206,-7.11312 -10.77352,-6.03057 -2.60171,0.81571 -4.74405,3.11973 -5.39899,9.50161 -0.55501,5.40936 8.40975,7.06131 11.80003,7.31707 2.7601,0.20817 2.40055,2.90591 0.73724,3.41853 -1.78921,0.55144 -9.60738,-4.07223 -10.05177,-0.40687 -0.4444,3.66536 -1.02631,11.65383 3.87878,14.45785 3.85637,2.20458 18.35457,-1.9818 20.01513,-2.39484 1.97723,-0.49188 3.90781,-1.06528 4.55114,-0.47792 4.37298,3.99224 -4.57385,5.4176 -1.54445,9.1245 3.21927,3.93901 7.87236,4.3016 12.1633,4.99942 8.81646,1.43391 4.34376,-15.06052 6.29339,-15.16159 4.20726,-0.57708 5.85469,-1.21214 9.24619,1.49045 3.3914,2.70266 8.48655,11.059 15.62717,13.23762 -0.62254,-6.38892 -0.1099,-12.13531 2.07674,-16.42916 2.48021,7.33272 11.42073,10.96677 20.50018,13.30284 -4.5442,-5.24323 -5.78562,-14.75696 -4.33142,-16.2085 5.96824,6.56362 11.58021,8.95315 22.85421,8.63459 -3.35616,-2.46062 -5.07213,-9.64102 -4.33093,-11.66071 1.13723,-3.09836 3.59686,2.29698 6.61984,-3.99807 1.90563,-3.96832 -1.16879,-8.75134 -2.44281,-11.22435 -5.84339,-11.34154 -6.72689,-37.6024 20.26212,-43.80386 14.67849,-3.37278 36.86015,-11.79286 38.78034,-14.17687 15.30246,-19.00003 1.17542,-35.05415 -6.7199,-44.26589 -19.97429,9.41076 -48.82044,1.39503 -71.77999,1.07821 z"
         inkscape:connector-curvature="0" />
      <path
         style="color:#000000;display:inline;overflow:visible;visibility:visible;fill:#e20909;fill-opacity:1;fill-rule:evenodd;stroke:#000000;stroke-width:1.25934315;stroke-linecap:butt;stroke-linejoin:miter;stroke-miterlimit:4;stroke-dasharray:none;stroke-dashoffset:0;stroke-opacity:1;marker:none;enable-background:accumulate"
         id="path3041-5-0-6-4-2"
         d="m 246.31545,293.3111 c 11.8537,4.39639 21.90873,15.23567 23.20903,23.02574 -6.83037,13.44202 -2.32415,19.45185 7.43784,17.84366 7.96678,-1.30849 7.98002,-7.58829 5.88158,-14.83351 -1.87212,-6.46395 -4.72124,-10.83052 -10.78656,-15.4539 -7.91993,-6.03698 -22.33756,-11.17335 -25.74189,-10.58199 z"
         inkscape:connector-curvature="0" />
      <path
         style="color:#000000;display:inline;overflow:visible;visibility:visible;fill:#2b5df2;fill-opacity:1;fill-rule:evenodd;stroke:#000000;stroke-width:0.62967157;stroke-linecap:butt;stroke-linejoin:miter;stroke-miterlimit:4;stroke-dasharray:none;stroke-dashoffset:0;stroke-opacity:1;marker:none;enable-background:accumulate"
         id="path3069-1-6-0-7-2"
         d="m 319.12846,424.65557 c -0.81119,0.10855 -1.61371,0.28529 -2.42499,0.56708 -5.90735,2.05272 -8.6759,9.74585 -8.64311,12.68602 5.28868,-4.64136 9.19303,-5.53476 16.49561,-0.10318 1.63428,-2.63822 4.11254,-6.30134 6.60231,-10.00247 -0.94817,-0.85549 -6.35052,-3.90801 -12.02982,-3.14742 z m -10.43292,19.16611 c -1.80886,0.19209 -3.80219,0.85511 -5.69294,2.27647 -7.04845,5.29898 -4.66715,14.93771 -4.07995,16.0985 5.56297,-9.03744 10.12154,-9.68065 16.96413,-4.24512 l -0.8341,-12.7644 c -0.81332,-0.72717 -3.3422,-1.6857 -6.35714,-1.36545 z m 11.14978,18.17502 c 0,0 -7.57972,2.12426 -8.38042,11.59386 -0.79977,9.45939 5.9866,12.65032 7.73781,13.25275 -0.87016,-7.04112 1.72666,-13.42078 9.88515,-16.5758 z m 18.93282,7.84277 c -1.64406,1.61058 -5.15677,4.16638 -3.89732,10.96095 1.35489,7.30776 8.36197,9.83943 11.21944,9.70168 -3.68729,-6.46568 -1.97367,-11.94663 2.08326,-15.76338 z"
         inkscape:connector-curvature="0" />
      <g
         style="display:inline;fill:#fcef3c;fill-opacity:1;stroke:#000000;stroke-width:2.75286531;stroke-miterlimit:4;stroke-dasharray:none;stroke-opacity:1"
         id="g2989-7-6-1-8-8"
         transform="matrix(0.7443698,-0.53517404,-0.54216496,-0.73478167,488.45344,672.67237)">
        <path
           style="color:#000000;display:inline;overflow:visible;visibility:visible;fill:#2b5df2;fill-opacity:1;fill-rule:evenodd;stroke:#000000;stroke-width:1.04374456;stroke-linecap:butt;stroke-linejoin:miter;stroke-miterlimit:4;stroke-dasharray:none;stroke-dashoffset:0;stroke-opacity:1;marker:none;enable-background:accumulate"
           id="path3055-1-1-6-3-2"
           transform="matrix(0.6974409,-0.53516523,-0.53523586,-0.69753299,9.1571389,880.92038)"
           d="m 105.90625,278.78125 c -6.828431,0.2331 -12.953471,7.03572 -14.3125,11.03125 7.304105,-3.11394 12.38895,-1.87681 16.78125,2.5 l 10.75,-7.96875 c 0,0 -5.95545,-4.9459 -11.84375,-5.53125 -0.46019,-0.0457 -0.91977,-0.0468 -1.375,-0.0312 z m -19.75,32.125 c -3.715187,0.11288 -9.544646,0.88171 -14.21875,4.15625 -7.326686,5.13286 -9.126767,16.42079 -8.34375,18.65625 7.147459,-7.80637 12.639727,-10.20329 26.3125,-7.6875 L 89.84375,311 c 0,0 -1.458388,-0.16148 -3.6875,-0.0937 z m 4.125,27.34375 c 0,0 -11.843736,4.1126 -14.5,13.65625 -2.833267,10.17961 3.805128,17.97719 6.8125,19.46875 1.139976,-7.10136 2.444261,-17.26899 16.25,-20.40625 z m 17.9375,18.84375 c -2.02261,4.17195 -5.75276,10.44675 -3.1875,17.78125 3.12487,8.93448 14.49128,10.79798 17.6875,10.9375 -5.74324,-9.26002 -4.15425,-15.85987 0.0625,-25.0625 z"
           inkscape:connector-curvature="0" />
        <g
           style="fill:#fcef3c;fill-opacity:1;stroke:#000000;stroke-width:2.75286531;stroke-miterlimit:4;stroke-dasharray:none"
           id="g2997-1-8-5-5-8">
          <g
             style="fill:#fcef3c;fill-opacity:1;stroke:#000000;stroke-width:2.75286531;stroke-miterlimit:4;stroke-dasharray:none"
             id="g3041-5-4-7-1-9">
            <path
               style="color:#000000;display:inline;overflow:visible;visibility:visible;fill:#e20909;fill-opacity:1;fill-rule:evenodd;stroke:#000000;stroke-width:1.37643242;stroke-linecap:butt;stroke-linejoin:miter;stroke-miterlimit:4;stroke-dasharray:none;stroke-dashoffset:0;stroke-opacity:1;marker:none;enable-background:accumulate"
               id="path2975-2-9-5-2-0"
               d="m 31.397846,277.74154 c 11.303743,11.67364 21.292719,-5.46692 34.784318,1.84873 -4.531944,2.7068 -8.38734,8.97009 -7.374487,14.81112 12.040739,-6.63243 19.52694,-5.63031 28.547767,-3.51285 -4.938454,2.49418 -11.575118,7.4467 -8.96152,15.08566 5.947777,-2.90053 18.305369,-9.16952 30.461996,-2.14726 -12.979321,4.13182 -16.761093,11.08443 -14.44991,14.23618 6.83173,9.31645 12.48426,5.72994 8.24401,17.28193 -1.1914,3.24583 -9.840983,10.03024 -6.409372,14.7972 1.819979,2.52818 12.274682,3.36859 17.237552,3.5232 -2.33691,1.54131 -6.94183,8.0229 -13.494431,9.35916 -6.552604,1.33626 -12.027013,3.24188 -16.016661,16.54496 -2.372656,10.66871 -7.76042,16.04887 7.652771,20.39065 10.166831,3.26792 13.262051,17.48103 15.850211,27.84178 3.06236,10.8326 6.55186,21.48997 6.89676,34.91565 0.26492,10.31267 -3.80547,31.23448 2.20923,40.91612 7.78848,12.55471 16.82351,25.43219 22.07145,31.09055 14.37997,15.50454 17.43941,18.21142 5.34554,35.38303 -7.14949,10.15126 -33.98241,42.66691 -62.197823,36.75925 -14.416538,-3.01848 -22.578198,3.83243 -38.11342,-2.90574 -15.535222,-6.73817 -12.958155,-2.86995 -23.071322,-4.11801 -10.113167,-1.24806 -18.7394769,-1.64977 -21.27498082,-1.51182 -5.07100778,0.27589 -6.60918938,0.71366 -15.61323718,0.53134 -9.004048,-0.18232 -17.178626,-0.52783 -18.931764,-0.90474 -3.506274,-0.75382 -16.809,2.71799 -18.922408,4.66041 -1.303968,1.19847 -0.263755,11.13537 -2.888899,13.91238 -3.290448,3.48082 -14.210818,7.32524 -17.840188,2.56414 -1.944108,-2.55033 3.22972,-10.08399 0.01152,-12.18729 -2.190584,-1.43168 -9.103602,0.60761 -11.129777,2.94057 -1.158089,1.33344 -3.472983,6.59078 -7.41377,8.1063 -7.363121,2.83166 -15.718851,-4.69431 -14.593101,-10.81838 0.57223,-3.11292 9.368663,-6.21141 9.993793,-7.63247 0.70847,-1.61051 1.085935,-2.74649 -0.58593,-3.6566 -1.813653,-0.98732 -10.460543,5.92665 -13.018993,4.78358 -8.71122,-3.89203 -10.19344,-17.40915 -0.98938,-19.4608 3.09154,-0.68912 6.58517,-0.61083 8.98907,-0.61294 2.13311,-0.002 2.50495,-2.22024 2.08861,-3.08802 -0.94772,-1.97539 -10.36244,-1.35243 -11.42421,-4.62276 -2.04219,-6.29008 7.79178,-15.48154 13.507953,-13.15171 4.435932,1.80802 14.269547,6.59547 15.821461,7.08747 0.775961,0.24599 2.246325,0.99256 8.019547,-1.23413 14.169073,-5.87903 14.371153,-14.06079 11.323567,-27.44606 6.339547,0.45822 19.664819,5.74221 20.404512,13.41051 1.028241,-8.00323 4.634499,-18.89239 10.619708,-24.29033 2.626627,9.09022 10.397854,12.69454 13.226937,14.4021 1.013131,-7.30873 8.861215,-20.02531 18.1102102,-24.1453 -3.7446505,9.32539 -2.0017732,19.97292 8.3535445,17.99259 10.3553173,-1.98033 13.8454023,-1.31637 20.5884743,4.22253 6.743072,5.5389 14.050577,-3.0559 13.901823,-10.32803 -0.148754,-7.27213 -0.09857,-10.03634 0.604814,-17.272 0.756799,-7.78518 3.018253,-16.5485 4.629847,-22.09706 1.821095,-6.26979 3.127942,-12.63703 2.915363,-20.2983 -0.272312,-9.81381 -3.548298,-18.75834 -10.339083,-27.58905 -7.342256,-7.92755 -17.596095,-8.21762 -23.793659,-16.78798 -2.66793,-3.09387 -10.0700778,-5.75699 -10.0921191,-17.1806 -0.022041,-11.42361 -8.3129536,-30.79285 -17.9028549,-34.23943 16.7391009,-7.54985 30.739058,2.99217 34.415893,16.58949 3.515968,-8.48427 7.034366,-12.06846 9.757063,-19.20595 1.031379,-2.70372 5.529659,-15.29668 6.824647,-18.11252 2.206618,-6.58479 1.995256,-5.52367 6.084747,-14.3548 -0.0051,-1.21605 -2.140574,-8.44184 -3.016702,-10.13733 -0.253419,-0.49043 -1.995718,-4.55568 -5.699645,-8.34915 -3.277381,-3.3566 -7.85018,-6.65073 -10.933547,-6.89621 -3.17382,-0.25268 -0.822949,5.99571 -3.841517,6.94208 -3.993018,1.25188 -14.2868191,-0.42186 -15.1051516,-4.47411 -0.7960766,-3.94202 8.4303006,-7.02921 4.3834256,-7.15779 l -5.1744951,-0.16442 c -3.1809286,-0.10106 -2.2781715,3.66223 -7.936392,5.54149 -6.9535869,2.3095 -12.7598039,-4.76026 -11.4476639,-10.87338 0.863218,-4.02164 6.7343916,-4.7703 6.7343916,-4.7703 6.1546783,-1.55026 7.02938952,-4.49466 -0.8359688,-2.73839 0,0 -7.6614558,1.55754 -9.5480528,-4.18394 -1.286866,-3.91629 1.766968,-10.31484 4.73434,-11.25252 3.9380903,-1.2444 9.1737221,-1.02859 11.412322,0.42971 4.1986905,2.7352 4.8379722,-0.5294 1.70076284,-2.81164 -1.78235944,-1.29662 -5.22382674,-4.25274 -3.70274744,-7.42399 1.8538766,-3.86509 9.8198213,-6.28337 13.2217161,-5.24837 5.2088225,1.58472 7.4682755,7.22925 7.4061575,9.20651 6.686683,-1.17621 11.594254,0.84631 14.997358,3.2861 z"
               inkscape:connector-curvature="0" />
          </g>
          <path
             style="color:#000000;display:inline;overflow:visible;visibility:visible;fill:none;stroke:#000000;stroke-width:0.91762161;stroke-linecap:butt;stroke-linejoin:miter;stroke-miterlimit:4;stroke-dasharray:none;stroke-dashoffset:0;stroke-opacity:1;marker:none;enable-background:accumulate"
             id="path4171-7-6-4-0-7"
             d="m -55.234597,566.94421 c 0,0 52.3263821,-17.33867 100.135936,-8.39083"
             inkscape:connector-curvature="0" />
        </g>
      </g>
      <path
         style="color:#000000;display:inline;overflow:visible;visibility:visible;fill:none;stroke:#000000;stroke-width:0.839562;stroke-linecap:butt;stroke-linejoin:miter;stroke-miterlimit:4;stroke-dasharray:none;stroke-dashoffset:0;stroke-opacity:1;marker:none;enable-background:accumulate"
         id="path3656-2-6-5-0-8"
         d="m 219.9861,394.75652 c 0,0 4.90422,6.74927 1.18153,13.8603 -3.88194,7.4152 -12.79719,3.06298 -12.79719,3.06298"
         inkscape:connector-curvature="0" />
      <path
         style="color:#000000;display:inline;overflow:visible;visibility:visible;fill:none;stroke:#000000;stroke-width:0.839562;stroke-linecap:butt;stroke-linejoin:miter;stroke-miterlimit:4;stroke-dasharray:none;stroke-dashoffset:0;stroke-opacity:1;marker:none;enable-background:accumulate"
         id="path3860-7-1-9-8-1"
         d="m 364.28266,375.89287 c 0,0 7.83864,-0.66575 12.15172,6.62215 4.49756,7.59961 -3.11047,13.19931 -3.11047,13.19931"
         inkscape:connector-curvature="0" />
      <g
         style="fill:#ffffff;stroke-width:0.66307402"
         id="g5392-2-5"
         transform="matrix(0.71545312,0.2591895,-0.26250437,0.70641846,1028.3288,318.95552)">
        <path
           style="color:#000000;display:inline;overflow:visible;visibility:visible;fill:#e20909;fill-opacity:1;fill-rule:evenodd;stroke:#000000;stroke-width:0.40491045;stroke-linecap:butt;stroke-linejoin:miter;stroke-miterlimit:4;stroke-dasharray:none;stroke-dashoffset:0;stroke-opacity:1;marker:none;enable-background:accumulate"
           id="path4686-5-8"
           transform="matrix(4.1071277,0,0,4.1071277,-3174.8661,-2694.2157)"
           d="m 526.90625,660.25 c -0.95081,-0.0465 -2.84375,3.125 -2.84375,3.125 0,0 -1.86501,-3.04377 -2.71875,-2.9375 C 520.49004,660.54377 519,664 519,664 c 0,0 -1.28525,-2.73737 -1.75,-2.5 -0.46478,0.23737 -0.7221,3.61238 -0.875,3.90625 -7.82985,3.97179 -0.91638,12.56738 -8.3125,15.875 1.29889,0.16463 2.49935,0.55145 4.15625,0 -2.07542,1.867 -3.05702,6.46111 -6.40625,5.15625 0.97061,4.63545 3.43418,5.95303 7.875,3.28125 -7.15826,4.18514 -4.79271,9.65629 -13.34375,10.625 6.09842,3.80025 10.10366,1.84884 14.09375,-0.59375 -8.02644,5.66684 -5.43587,13.53034 -13.625,12.375 5.58617,6.87507 10.96723,3.59716 16.25,-0.90625 C 517.8616,710.25709 520.375,708 520.375,708 c 0,0 -2.17935,2.25277 -3.3125,3.21875 -4.1184,4.95628 -1.57052,10.96261 2.40625,12.28125 0.34572,-6.58976 4.16725,-7.88617 7.75,-11.75 -3.05133,7.20402 4.5412,13.31062 9.59375,8.96875 -4.35135,-2.20269 -1.62058,-6.43729 1.40625,-12.09375 -1.99103,4.08679 2.26418,9.54609 5.34375,7.09375 -2.20411,-2.6701 -0.20076,-6.51846 0.0324,-9.3125 0.2329,-2.79069 -1.82195,-5.8939 -3.34121,-7.43204 3.26798,0.54648 4.31809,2.51416 6.00413,4.66186 0.98801,-7.72567 -4.07166,-12.05162 -7.88868,-14.58523 4.83591,2.42128 7.05637,2.33319 8.00583,-2.20126 -3.34923,1.30486 -4.33083,-3.70133 -6.40625,-5.56833 1.6569,0.55145 2.85736,0.16463 4.15625,0 -7.20483,-3.22208 -0.81626,-11.46758 -7.71875,-15.5625 -0.0387,-0.11075 -0.54404,-2.75875 -0.58374,-2.86683 -0.72704,-1.98135 -1.69594,2.37168 -2.65564,0.96997 -0.11878,-1.57472 -0.0818,-2.57206 -0.88562,-2.79064 -0.80379,-0.21858 -2.59375,2.625 -2.59375,2.625 0,0 -1.83044,-3.35979 -2.78125,-3.40625 z"
           inkscape:connector-curvature="0" />
        <path
           style="color:#000000;display:inline;overflow:visible;visibility:visible;fill:#2b5df2;fill-opacity:1;fill-rule:evenodd;stroke:#000000;stroke-width:1.10867918;stroke-linecap:butt;stroke-linejoin:miter;stroke-miterlimit:4;stroke-dasharray:none;stroke-dashoffset:0;stroke-opacity:1;marker:none;enable-background:accumulate"
           id="path701-1-7-1"
           d="m -1053.0504,39.436008 c 26.1591,-4.74412 52.3637,-5.06432 78.61544,-0.787 0.2805,-4.14093 1.6458,-9.73912 3.5891,-14.32561 3.3903,-8.00174 7.7692,-16.4185202 12.2489,-23.6109402 -3.4742,-0.11125 -8.0103,2.77556 -11.3059,8.5286 -1.3683,-2.54312 -6.9485,-4.41017 -10.4856,-0.96939 3.0488,3.2528702 7.5577,7.2408002 4.6031,11.8703202 -2.1157,3.31522 -6.147,2.78747 -8.8689,1.15741 -2.4419,-1.46244 -4.7219,-4.87283 -5.5678,-9.95074 -3.2519,5.66196 -7.0061,8.29313 -10.41354,8.41339 -5.6901,0.20062 -8.5264,-1.6746 -8.5599,-4.80387 -0.059,-5.4927702 6.1443,-7.6174202 10.38284,-8.9953202 -1.44014,-4.72141 -7.22824,-5.77939 -9.65254,-4.21211 -0.1139,-6.63034 -2.6962,-11.3487 -5.7934,-12.9281598 -3.0641,1.6411498 -5.5488,6.4102098 -5.5266,13.0414798 -2.4561,-1.51841 -8.2212,-0.3448 -9.564,4.40449 4.2659,1.29275 10.5115,3.29279 10.5655,8.7856102 0.031,3.12929 -2.7665,5.06115 -8.4595,4.97425 -3.4091,-0.0521 -7.2167,-2.60753 -10.5842,-8.20321 -0.7415,5.09381 -2.9508,8.54915 -5.3623,10.06017 -2.6877,1.68423 -6.7074,2.29256 -8.8908,-0.97963 -3.0491,-4.56941 1.377,-8.64678 4.3583,-11.9600202 -3.6071,-3.36926 -9.1478,-1.39088 -10.4635,1.1790902 -3.4131,-5.6858802 -8.0077,-8.4812702 -11.4787,-8.3005002 4.6265,7.10126 9.1774,15.4286502 12.7315,23.3608802 2.0371,4.54663 3.517,10.11634 3.8825,14.25081 z"
           inkscape:connector-curvature="0" />
        <path
           style="fill:#000000;stroke:#000000;stroke-width:1.10867918;stroke-linecap:round;stroke-linejoin:round;stroke-miterlimit:4;stroke-dasharray:none;stroke-opacity:1"
           id="path4684-3-6"
           d="m -1040.8155,111.42121 c 2.3177,-0.55501 6.0976,6.91043 14.6649,9.004 9.791,2.39266 13.5051,3.29445 23.6501,1.30058 10.14506,-1.99391 14.93689,-12.87284 16.88537,-9.2041 1.94847,3.66875 -6.23256,12.50571 -9.08343,23.91064 -2.85074,11.40499 2.71604,17.08389 -2.27175,21.70966 -4.98769,4.62575 -8.77109,-3.04192 -17.76749,-3.20142 -8.9964,-0.15949 -13.0865,7.52567 -18.2201,2.5011 -5.1337,-5.02454 -0.085,-11.28485 -2.2676,-22.61004 -2.1816,-11.32517 -8.7047,-19.02112 -6.4389,-22.61005 0.2831,-0.44863 0.5179,-0.72107 0.8489,-0.80037 z"
           inkscape:connector-curvature="0" />
        <path
           style="fill:#ffffff;fill-rule:evenodd;stroke:none;stroke-width:0.66307402"
           id="path2932-4-9-5-1"
           d="m -1034.7031,115.91179 c 1.2611,6.86009 2.7605,16.26577 5.0703,17.80828 1.9052,1.27211 2.7602,-7.48042 4.817,-12.95148 -0.4985,-0.12107 -0.862,-0.24353 -1.3943,-0.3736 -3.634,-0.88803 -6.328,-2.68419 -8.493,-4.4832 z m 42.2112,0.3736 c -2.54985,2.2208 -5.78696,4.64866 -10.0141,5.47947 -0.095,0.0187 -0.1593,-0.0183 -0.2535,0 1.0218,5.73523 -0.7382,15.26768 1.5211,13.94774 2.55346,-1.49177 6.16128,-12.39006 8.7465,-19.42721 z m -33.4648,20.79708 c -2.0105,0.21676 -4.2934,13.74235 -5.9576,21.29521 3.4268,2.25783 6.6577,-0.69244 11.4084,-2.36613 -2.6805,-6.84508 -4.7832,-18.38428 -5.0705,-18.68002 -0.1525,-0.15704 -0.2243,-0.26587 -0.3803,-0.24906 z m 21.4226,1.36987 c -0.1215,-0.0569 -0.2611,0.0386 -0.3803,0.12454 -0.5887,0.42412 -2.2986,11.3288 -4.6901,17.31013 4.2043,1.47851 7.0458,4.16082 9.88726,3.73601 -1.28986,-5.8321 -3.07866,-20.35729 -4.81686,-21.17068 z"
           inkscape:connector-curvature="0" />
        <path
           style="color:#000000;display:inline;overflow:visible;visibility:visible;fill:#e20909;fill-opacity:1;fill-rule:evenodd;stroke:#000000;stroke-width:0.40491045;stroke-linecap:butt;stroke-linejoin:miter;stroke-miterlimit:4;stroke-dasharray:none;stroke-dashoffset:0;stroke-opacity:1;marker:none;enable-background:accumulate"
           id="path2472-67-2-4-0-1-3-2"
           transform="matrix(4.1071277,0,0,4.1071277,-3460.0889,-2790.1313)"
           d="m 607.67937,694.17857 c 4.6141,-1.3863 3.44595,-3.71757 3.53277,-7.86211 -2.65469,1.79342 -6.43761,0.67804 -6.58536,3.29573 m -18.34764,-0.0708 c -0.15326,-2.71523 -4.07714,-1.55829 -6.83077,-3.41854 0.0901,4.29897 -1.12162,6.75831 3.66443,8.19626 m 5.10595,8.38193 c -1.24698,2.7335 -0.19091,4.82372 3.59375,4.90625 3.78464,0.0825 3.65625,-2.40625 3.65625,-2.40625 0,0 -0.12834,2.48878 3.65625,2.40625 3.78473,-0.0825 4.84072,-2.17275 3.59375,-4.90625"
           inkscape:connector-curvature="0" />
        <path
           style="fill:none;stroke:#000000;stroke-width:1.10867918;stroke-linecap:round;stroke-linejoin:round;stroke-miterlimit:4;stroke-dasharray:none;stroke-opacity:1"
           id="path2978-8-0-3-4"
           d="m -1027.554,95.200644 c 2.2394,-1.918328 6.3766,2.22685 13.4952,2.41545 7.119,0.1886 12.6142,-4.889486 14.57717,-3.128014 1.97725,1.774259 -9.89927,11.47384 -14.67487,11.46805 -4.9513,-0.006 -15.6769,-8.802996 -13.3975,-10.755486 z"
           inkscape:connector-curvature="0" />
        <path
           style="display:inline;fill:#ffffff;fill-opacity:1;fill-rule:evenodd;stroke:#000000;stroke-width:0.55433959;stroke-linecap:round;stroke-linejoin:round;stroke-miterlimit:4;stroke-dasharray:none;stroke-opacity:1"
           id="path3451-9-6-7-2"
           d="m -1057.498,67.499546 c 3.1489,9.275592 5.5184,10.400745 11.3122,13.205231 13.2188,4.365389 18.7206,-2.04907 16.7463,-9.62267 -5.603,-3.561039 -6.8993,-4.681461 -9.8652,-5.066134 -0.8318,-0.107863 1.4648,8.45484 -2.0958,12.488645 -1.1845,-1.315623 -3.693,-7.324964 -1.7852,-12.715841 -2.8102,-0.06527 -9.3495,3.370076 -14.3123,1.710769 z"
           inkscape:connector-curvature="0" />
        <path
           style="color:#000000;display:inline;overflow:visible;visibility:visible;fill:none;stroke:#000000;stroke-width:1.66301894;stroke-linecap:butt;stroke-linejoin:miter;stroke-miterlimit:4;stroke-dasharray:none;stroke-dashoffset:0;stroke-opacity:1;marker:none;enable-background:accumulate"
           id="path4797-4-5"
           d="m -950.94635,33.261821 c 0,0 -11.95912,-2.55792 -18.53659,19.594075 m 2.58693,11.594066 c -2.92767,8.677282 -13.14299,1.082109 -19.30114,1.294238 -10.86068,0.374116 -16.42635,12.895248 -20.65955,1.985741 m -13.9203,0 c -4.2332,10.909507 -9.7989,-1.611625 -20.6596,-1.985741 -6.1582,-0.212129 -16.3735,7.383044 -19.3012,-1.294238 m 11.9623,73.509918 c 0,0 -7.5246,13.48478 -5.4344,21.6929 4.5984,-0.29315 11.7049,-6.74237 11.7049,-6.74237 0,0 -9.1968,19.05456 0.418,30.19417 10.8688,-4.39723 13.3769,-9.08755 13.3769,-9.08755 0,0 1.6722,15.82995 12.959,23.74492 11.2868,-7.91497 12.9588,-23.74492 12.9588,-23.74492 0,0 2.5083,4.69032 13.377,9.08755 9.61467,-11.13961 0.41795,-30.19417 0.41795,-30.19417 0,0 7.10653,6.44922 11.70495,6.74237 2.09008,-8.20812 -5.43439,-21.6929 -5.43439,-21.6929 m -77.00451,-84.883604 c -6.8227,-22.977469 -19.2274,-22.259413 -19.2274,-22.259413"
           inkscape:connector-curvature="0" />
        <path
           style="color:#000000;display:inline;overflow:visible;visibility:visible;fill:#2b5df2;fill-opacity:1;fill-rule:evenodd;stroke:#000000;stroke-width:1.10867918;stroke-linecap:butt;stroke-linejoin:miter;stroke-miterlimit:4;stroke-dasharray:none;stroke-dashoffset:0;stroke-opacity:1;marker:none;enable-background:accumulate"
           id="path4805-3-8"
           d="m -1010.0427,137.31249 c 8.3979,5.98055 -4.9796,49.7135 -4.9796,49.7135 0,0 -11.16,-35.32277 -8.9065,-46.91011 0,0 5.4885,-8.78395 13.8861,-2.80339 z"
           inkscape:connector-curvature="0" />
        <path
           style="display:inline;fill:#ffffff;fill-opacity:1;fill-rule:evenodd;stroke:#000000;stroke-width:0.55433959;stroke-linecap:round;stroke-linejoin:round;stroke-miterlimit:4;stroke-dasharray:none;stroke-opacity:1"
           id="path4977-6"
           d="m -970.13578,67.499546 c -3.14884,9.275592 -5.51841,10.400745 -11.3122,13.205231 -10.30511,3.283924 -17.29703,-2.049304 -16.74626,-9.62267 5.60297,-3.561039 6.89931,-4.681461 9.86521,-5.066134 0.83176,-0.107863 -1.46481,8.45484 2.09581,12.488645 1.18446,-1.315623 3.6929,-7.324964 1.78511,-12.715841 2.81028,-0.06527 9.34954,3.370076 14.31233,1.710769 z"
           inkscape:connector-curvature="0" />
      </g>
    </g>
    <g
       id="layer2"
       style="display:inline"
       transform="matrix(0.93749999,0,0,0.93749999,-1395.9053,407.666)" />
    <g
       id="layer5"
       transform="matrix(0.93749999,0,0,0.93749999,-1395.9053,407.666)" />
  </g>
</svg>
