<svg xmlns="http://www.w3.org/2000/svg" xmlns:xlink="http://www.w3.org/1999/xlink" version="1.1" width="600" height="660"><desc>Coat of arms</desc><defs><radialGradient id="G" cx="221" cy="226" r="300" gradientTransform="matrix(1.35,0,0,1.35,-77,-85)" gradientUnits="userSpaceOnUse"><stop offset="0" stop-color="#fff" stop-opacity=".31"/><stop offset=".2" stop-color="#fff" stop-opacity=".25"/><stop offset=".6" stop-color="#666" stop-opacity=".13"/><stop offset="1" stop-color="#000" stop-opacity=".13"/></radialGradient><g id="A"><path d="M 297 94 L 297.5 201.3 C 299 197.5 302 207.5 303 199 C 301.6 146 302 148 300.6 94.5 L 297 94 Z M 297 192.7 C 289.3 186 280 194.6 273.3 171 C 275 172.6 278 175.6 279 175.6 C 285.4 177 289.8 188 297 192.7 Z M 281 159.6 C 285.8 169.4 297 166.4 295.8 191.4 C 292.3 190.5 291.6 186 290.3 185.3 C 286.8 178 286 167.5 281 159.7 Z M 301 105.8 C 308.6 99 318.4 107 324 83 C 322.3 85 319.6 88 318.6 88 C 312 90 308 100.8 301 105.8 Z M 316 72 C 311.3 82 300 79.6 302.3 104.5 C 306 103.4 306.5 98.7 307.7 98 C 311 90.8 311 80.3 316 72 Z M 298.6 144 C 290.6 137.4 281.3 145.8 274.6 122 C 276.5 123.8 279 127 280.5 127 C 287 128.6 291 139.5 298.6 144 Z M 282.3 111 C 287 120.6 298.6 117.7 297 142.6 C 293.7 141.6 292.7 137 291.6 136.4 C 288 129.3 287.5 119 282.3 111 Z M 301.6 156.3 C 309.3 149.3 318.8 157.3 324.6 133.6 C 322.7 135.3 320 138.5 319 138.5 C 312.4 140.5 308.7 151.4 301.6 156.3 Z M 316.5 122.7 C 312 132.7 300.4 130 302.8 155 C 306.5 154 307 149 308 148.6 C 311.3 141.3 311.5 130.8 316.5 122.7 Z M 296.8 101.8 C 289.3 95 279.8 103.3 273.4 79.5 C 275.3 81.4 278 84 279 84.3 C 285.4 86 289.5 97 296.8 101.8 Z M 281.3 68.3 C 286 78.4 297.4 75.6 295.8 100.3 C 292 99.3 291.4 94.5 290.3 94 C 286.8 87 286.4 76.4 281.3 68.3 Z"/><path d="M 298.8 173.5 C 291 166.7 281.5 175.4 275 151.8 C 276.7 153.4 279.5 156.3 280.7 156.5 C 287 158.3 291.4 168.8 298.8 173.5 Z M 282.5 140.5 C 287.5 150.3 299 147.3 297.5 172.3 C 293.7 171.3 293 166.7 292 166 C 288.3 159 287.7 148.4 282.5 140.5 Z M 301 128.8 C 308 121.7 318 130 323.8 106 C 322 108 319.3 111 318 111 C 311.7 113 308 123.8 301 128.8 Z M 315.7 95 C 311.3 105 299.7 102.5 302 127.5 C 305.7 126.4 306 121.7 307.4 121 C 310.6 114 310.8 103.3 315.7 95 Z M 299.7 94 C 302 83 313.8 82 306.7 58.5 C 306 61 305.5 65.7 304.6 66.7 C 300.5 73 303 84.7 299.7 94 Z M 294.7 55.7 C 296.3 67.3 286 74 300 92 C 302.4 88.4 300.4 84.3 301 83 C 300 74.6 295 66 294.7 55.7 Z M 295.5 124 C 287.7 117.5 278 126 271.6 102.3 C 273.5 104 276 107 277.5 107 C 284 108.7 288 119.6 295.5 124 Z M 279 91 C 284.4 100.8 295.7 98 294 122.7 C 290.6 121.7 290 117 288.5 116.5 C 285 109.5 284.4 99 279 91 Z M 303.3 179.8 C 311 173 320.7 181 326.4 157 C 324.6 159 322 162 320.7 162 C 314.4 164 310.5 175 303.3 179.8 Z M 318.3 146 C 313.7 156.3 302 153.5 304.6 178.5 C 308 177 308.7 172.7 310 172 C 313 164.6 313.4 154 318.3 146 Z"/><path d="M 298.6 202.3 C 306 195.3 315.8 203.4 321.7 179.6 C 319.6 181.4 317 184.5 316 184.5 C 309.5 186.6 306 197.3 298.6 202.3 Z M 313.4 168.5 C 309 178.5 297.4 176 300 201 C 303.4 199.8 304 195 305 194.5 C 308 187 308.6 176.7 313.4 168.6 Z"/></g><path id="B" d="M 216 240.2 C 266 325 254.5 410.3 223.7 507 C 221 505.7 218 504.4 215.3 503 C 228.5 461.3 238 422.8 240.6 385.8 C 240.6 385.7 240.6 385.6 240.6 385.6 C 247 342.8 239.7 298.5 210.3 244.3 C 212.3 243 214.2 241.6 216 240.2 Z"/><path id="C" d="M 217.2 234 C 267.7 313 280 385 259.8 520 C 256.2 519 252.7 518 249 517 C 269.4 388.3 258 316.2 211.4 238.3 C 213.3 237 215.2 235.5 217.2 234 Z"/><path id="D" d="M 260 205.8 C 295.2 294 301.2 376.4 294.4 520.5 C 291.4 520.2 288.4 519.8 285.4 519.3 C 290.4 376.3 285.4 297 253.2 208.7 C 255.4 207.7 257.7 206.7 260 205.8 Z"/><path id="E" d="M 282.7 200.4 C 280.5 201 278.3 201.5 276 202 C 294 301.5 306.6 402 307.2 524.7 C 309.3 524.7 311.3 524.7 313.4 524.6 C 316 399.3 303 299.4 282.7 200.4 Z"/><path id="F" d="M 239.5 218 C 265.5 227.6 276.4 359.6 276.4 359.6"/></defs><g fill="#2b5df2"><path id="S" d="M1.5 1.5h597V280A570 445 0 0 1 300 658.5 570 445 0 0 1 1.5 280Z"/></g><use xlink:href="#S" fill="url(#G)" stroke="#000" stroke-width="3"/><g fill="#fcef3c" stroke="#333" stroke-width="2" transform="matrix(1,0,0,1,0,-16)"><path d="M 199 499 C 259 381 244 337 181 244 C 266 166 383 186 412 254 C 329 356 365 415 399 501 C 327 517 326 546 199 499 Z"/><path d="M 317 192 C 300 204 304 256 304 256"/><use xlink:href="#F" transform="matrix(.99,.16,-.16,.99,89,-64)"/><use xlink:href="#F" transform="matrix(.99,.16,-.16,.99,80,-59)"/><g id="W"><use xlink:href="#D"/><path d="M 217 225 C 215 226.3 212.6 227.7 210.4 229.2 C 253.6 317.6 261 400.3 257.8 521.4 L 263.2 522.4 C 264 522.5 264.8 522.6 265.6 522.7 C 270.8 399.4 263.8 313.6 217 225 Z"/><use xlink:href="#B" transform="matrix(1,-.04,.04,1,-10.6,15)"/><use xlink:href="#B" transform="matrix(1,.061,-.061,1,19,-18.2)"/><use xlink:href="#B"/><use xlink:href="#C"/><use xlink:href="#B" transform="matrix(.991,-.131,.131,.991,-43.4,44.7)"/><use xlink:href="#E"/><path d="M 239.4 219 C 285.7 309.8 290.3 396 276.3 521 C 272.7 520.2 269 519.4 265.5 518.5 C 280.7 392.3 276.2 311 233.4 222.4 C 235.4 221.2 237.4 220 239.4 219 Z"/></g><use xlink:href="#W" x="-600" transform="scale(-1,1)"/><g id="X" fill="none"><path d="M 198 241 C 230.5 248 243 348 243 348"/><path d="M 226 230 C 252 238 259 341 259 341"/><use xlink:href="#F"/><path d="M 265 206 C 290.6 216 297 348 297 348"/></g><use xlink:href="#X" x="-600" transform="scale(-1,1)"/><g id="Y"><use xlink:href="#A" transform="matrix(.98,-.21,.21,.98,-68,76)"/><use xlink:href="#A" transform="matrix(1,-.07,.07,1,-25,26.3)"/><use xlink:href="#A" transform="matrix(.8,-.485,.485,.8,-139,242)"/><use xlink:href="#A" transform="matrix(.95,-.297,.297,.955,-82,109)"/><use xlink:href="#A" transform="matrix(.99,-.167,.167,.986,-50,58)"/><use xlink:href="#A" transform="matrix(.89,-.454,.454,.891,-135,194)"/><use xlink:href="#A" transform="matrix(.96,-.294,.294,.956,-106.6,119)"/><use xlink:href="#A" transform="matrix(.91,-.407,.407,.913,-120.8,168)"/><use xlink:href="#A" transform="matrix(.87,-.485,.485,.875,-152.2,221)"/><use xlink:href="#A" transform="matrix(.79,-.61,.61,.79,-156,296)"/></g><use xlink:href="#Y" x="-600" transform="scale(-1,1)"/><use xlink:href="#A"/><path d="M 370 326 C 360 340 346 338 329 339 C 323 327 315 331 307 332 C 296 332 283 328 279 341 C 248 342 237 337 228 329 C 227 334 224 332 229 338 C 231 343 227 353 231 355 C 253 365 271 359 289 359 C 280 368 272 381 248 381 C 259 383 253 391 254 398 C 269 391 282 381 293 367 C 297 368 301 369 309 365 C 326 372 325 378 327 384 C 332 383 335 378 353 385 C 349 379 338 366 316 359 C 339 362 348 359 361 355 C 367 353 372 349 369 342 C 373 336 373 332 370 326 Z M 329 341 C 327 342 324 342 323 345 M 277 349 C 268 349 260 348 255 347 C 260 349 272 348 272 355 M 319 354 C 326 354 330 354 341 353 M 230 342 C 234 344 238 346 243 347 M 369 342 C 366 345 360 347 353 349 M 305 354 C 304 358 303 361 296 362 C 295 364 294 366 293 367 M 289 357 C 285 352 286 348 286 344 M 279 342 C 276 349 281 355 289 359 M 317 335 C 309 339 296 331 297 351 M 309 365 C 315 361 320 355 319 347"/></g></svg>