<svg xmlns="http://www.w3.org/2000/svg" width="761.927" height="904.531"><g transform="translate(-484.74384,-3.6875)"><path d="m 1235.6106,9.3067082 -738.25248,0.329079 c -5.02542,40.8322668 -7.12036,67.7606888 -6.98447,107.6679428 1.04915,308.15493 90.9377,583.11198 381.3465,783.82821 139.89125,-119.98051 241.64055,-252.87018 302.40365,-401.73554 34.0476,-83.41416 54.0458,-171.37327 62.8357,-263.88907 5.4022,-73.09112 5.9731,-147.991184 -1.3489,-226.2006218 z" fill="#ffd42a"/><path d="m 872.3812,900.82912 c 257.6027,-221.82027 336.9884,-438.49897 358.211,-619.07122 16.4061,-106.55656 11.2614,-197.362563 5.4937,-271.509469 L 497.8759,9.7246612 C 443.18706,495.12607 692.00591,788.88251 872.3812,900.82912 z" fill="none" stroke="#554401" stroke-width="2.985"/><g transform="translate(2.2684732)"><path d="m 1191.5878,54.353557 -651.76247,0.293552 c -4.4367,36.424856 -7.89629,60.448771 -7.49054,96.046221 3.13342,274.8926 97.49574,511.51216 338.87696,700.55964 C 1118.2163,637.19341 1226.9956,371.71858 1191.5878,54.353557 Z" fill="#ffd833"/><path d="m 871.88983,874.4043 c 0,0 -49.6125,-70.12098 -18.89396,-179.17437 -3.58381,-14.75711 -9.98597,45.00999 -52.06815,41.52737 -12.84391,-1.06274 -45.32668,-21.04724 -36.82071,-70.31081 0.81766,-8.68531 3.1102,-3.01992 6.396,0.8579 13.46297,15.80337 49.90412,48.87826 72.80729,-22.77225 3.55453,-7.74212 -3.22466,-3.42696 -8.49768,-3.48624 -30.05024,-0.55393 -38.55022,-54.6714 11.70747,-49.07987 l 0.0135,-118.36252 c 1.69187,-7.17869 -2.28116,-6.8326 -5.64756,-3.22164 -6.56928,8.77338 -11.96936,17.39254 -15.77116,28.97583 -2.48737,8.65035 -1.94673,9.82561 -5.86067,0.62938 l -5.51694,-12.96274 c -2.87285,-8.11506 -2.80855,-8.53011 -10.89604,-6.59792 l -17.88966,4.274 c -6.78194,2.43167 -7.7442,1.32504 -5.30224,-1.32584 22.18208,-24.45148 27.48372,-36.79426 36.49865,-52.65892 6.17932,-26.52666 9.3317,-53.05329 6.66506,-79.57992 0.13803,-9.93524 -9.3244,-8.45104 -17.33059,-9.27725 -6.55379,-0.6792 13.13213,78.30655 -30.6976,105.27836 -10.03015,5.68549 -8.26055,4.18939 -6.05321,-4.25114 3.45076,-13.38441 4.35205,-35.14819 3.84119,-55.47529 -0.41847,-8.55434 -0.32824,-18.02494 -1.03921,-27.18021 -1.97914,-10.09088 -0.25182,-23.88576 -11.45605,-26.12837 -8.55933,-0.14754 -6.98782,14.68324 -6.75909,21.10974 1.3038,36.00691 5.44361,112.15719 -0.5022,183.13636 -5.84586,69.78589 -9.62898,128.77334 -65.02879,151.29431 -10.95152,0.71793 -4.69281,-4.39357 -5.33836,-4.6343 19.95848,-22.36718 19.96713,-87.51211 24.41034,-156.88252 5.34723,-83.48392 9.94868,-172.2082 8.86065,-200.14303 0.73951,-10.07936 -12.09965,-14.52878 -16.8565,-4.88677 -9.45314,49.98838 -19.40925,258.59532 -91.32355,240.57753 -6.66943,-1.6492 -12.10732,-2.25055 -8.82694,-7.2323 32.48408,-52.4447 49.51056,-233.28477 49.34007,-303.70949 -0.003,-1.74104 -1.03972,-2.73933 -1.102,-4.0291 -1.03359,-12.85762 -3.89191,-5.55576 -5.10413,2.64745 -4.50086,30.39108 -16.94199,105.1864 -79.49923,120.65699 -9.21542,2.26487 -16.48698,3.5842 -11.9257,-3.522 33.31463,-53.16931 68.79046,-159.68617 62.77475,-184.58975 -3.03774,-7.0264 -2.67135,-6.81657 -5.402,-1.60182 -21.17452,34.68258 -41.54388,57.93364 -76.74274,53.34529 -9.59733,-4.56252 -19.00502,-11.27801 -13.68133,-12.75662 50.64461,-19.78654 73.95437,-57.18877 90.53793,-98.72279 12.40736,-40.896967 33.19939,-61.37753 56.13,-74.207846 71.06601,-29.641692 72.41246,78.023416 3.52221,61.127406 -1.1628,-1.7911 -3.87267,2.92583 -3.87267,2.92583 l 0.65403,11.47139 c -0.50721,5.97496 1.64915,3.54964 5.42049,1.89814 26.01377,-9.34147 50.59902,31.65785 -3.18939,52.70627 -6.16033,2.67397 -2.5042,9.44379 2.83205,5.46507 33.44108,-18.61819 71.36234,12.9578 35.30905,54.3324 -2.10394,5.2947 3.87409,11.76046 10.7198,7.11654 27.29273,-27.95018 58.38753,0.67363 41.50046,46.24088 -1.85302,4.47142 6.0183,7.18708 6.35746,1.46155 -0.0579,-38.31506 42.27859,-41.22097 49.05111,-0.28948 4.42005,5.57688 11.38205,1.58238 6.81952,-16.32302 -22.44319,-43.33833 -8.47267,-46.35631 6.34759,-61.08802 17.39758,-19.45244 16.10991,-31.20803 22.58398,-46.06996 2.61689,-23.48366 4.98787,-27.30605 11.74942,-52.42461 1.31147,-22.777505 -2.01793,-27.421435 -3.89072,-51.336047 -0.54102,-6.908505 0.56115,-13.497465 -1.96157,-21.215092 34.13437,-32.572859 62.39783,20.849606 65.69114,64.748739 1.07376,14.31321 -49.3324,-13.094985 -47.56232,-12.692585 43.2704,9.836805 1.57326,105.015455 4.92643,107.667645" fill="#191919"/><path d="m 870.16268,872.86233 c 0,0 39.99318,-65.97931 9.27463,-175.0329 3.58382,-14.75704 11.95782,40.67027 54.04,37.18768 12.84391,-1.06294 43.35483,-16.70748 34.84887,-65.97108 -0.81766,-8.68519 -3.1102,-3.01995 -6.396,0.85809 -13.46297,15.80328 -47.93228,37.78718 -72.8073,-22.77234 -3.55452,-7.7421 3.71761,-7.2846 8.99063,-7.34391 30.05024,-0.55402 38.05727,-54.18927 -12.20041,-48.59774 l -0.0135,-114.98702 c -1.69187,-7.17868 2.28116,-6.8326 5.64756,-3.22163 6.56928,8.77338 11.96936,17.39253 15.77116,28.97582 1.84147,3.05253 5.17623,6.3808 5.86067,0.62938 l 5.51694,-12.96274 c 2.87285,-8.11506 0.83671,-11.42337 8.9242,-9.49118 l 19.36855,1.86293 c 6.78195,2.43168 5.27942,1.32505 2.83747,-1.32583 -22.18208,-24.45148 -24.526,-31.48994 -33.54093,-47.3546 -6.17933,-26.52666 -9.33171,-53.05329 -6.66506,-79.57992 -0.13804,-9.93524 12.77509,-8.45103 20.78128,-9.27725 6.5538,-0.6792 -14.21451,76.58414 29.61522,103.55595 5.93943,-0.98883 5.24633,2.03639 3.6849,-2.52873 -3.45077,-13.38441 -4.35205,-35.14819 -3.84119,-55.47528 0.41847,-8.55435 0.32824,-18.02495 1.03921,-27.18021 1.97914,-10.09089 1.05913,-25.70221 12.26336,-27.94482 8.55933,-0.14754 6.18051,16.49968 5.95178,22.92618 -1.3038,36.00691 -5.44361,112.15719 0.5022,183.13636 5.84585,69.78589 10.43628,126.75494 65.83608,149.27595 10.9515,0.71816 4.8946,-3.58633 5.5402,-3.8269 -19.9585,-22.36721 -20.9763,-86.30115 -25.4195,-155.67156 -5.3472,-83.48392 -9.9486,-172.2082 -8.8606,-200.14303 -0.6873,-10.16172 13.9098,-17.38695 16.8565,-4.88677 9.4531,49.98838 21.874,255.21983 93.7883,237.20203 6.6694,-1.6492 6.2798,0.79752 2.9994,-4.18423 -32.4841,-52.4447 -48.6478,-232.45732 -48.4773,-302.88204 0,-1.74105 0.04,-3.23935 0.102,-4.52912 1.0336,-12.85762 6.3828,-5.15211 7.595,3.05111 4.5009,30.39107 21.0875,101.3734 83.6447,116.84399 9.2154,2.26488 6.8533,6.12387 2.292,-0.9823 -33.3146,-53.16931 -64.7931,-158.81649 -58.7774,-183.72007 3.0378,-7.02641 5.1714,-5.40378 7.902,-0.18903 20.1654,38.11364 44.5016,58.63941 79.7005,47.5926 9.5973,-4.56252 11.5121,-10.29579 6.1884,-11.7744 -50.6446,-19.78654 -71.9192,-53.83109 -88.5027,-95.36511 -12.4074,-40.896972 -30.2065,-65.717428 -53.1371,-78.547744 -71.06602,-29.641692 -71.38578,79.761934 -2.4955,62.865924 1.1628,-1.79111 2.353,5.52721 2.353,5.52721 l -0.654,11.47138 c 0.5072,5.97497 -0.1704,0.17422 -3.9416,-1.47735 -26.0138,-9.34147 -50.5991,32.14009 3.1893,53.18851 6.1604,2.67396 2.0113,9.44379 -3.3249,5.46507 -33.4411,-18.61819 -72.34831,15.85106 -36.295,57.22565 2.1039,5.29471 0.07,8.86721 -6.7762,4.22328 -27.29271,-27.95017 -62.33116,3.5669 -45.44409,49.13414 1.85303,4.47143 -4.53943,3.81159 -4.87859,-1.91394 0.0579,-38.31506 -43.75745,-37.84547 -50.52997,3.08602 -2.44822,0.75475 -11.38205,1.58237 -6.81952,-16.32302 20.26979,-43.40723 19.08642,-40.20401 1.04076,-74.72809 0.0404,-5.97767 -0.9975,-44.51749 4.34131,-46.46611 -6.42132,-41.49272 -7.4774,-35.44814 -2.27164,-63.302935 2.91662,-6.28845 -6.43929,-8.19334 -4.2728,-21.625695 1.43614,-8.904321 0.87732,-8.489699 -8.32689,-20.402743 -8.78167,-11.366264 -41.13428,-17.074606 -42.45342,-15.835023 -2.68331,2.077983 -7.42,1.357549 -7.78689,12.284525 -1.51176,45.024086 4.54788,155.528781 1.84562,157.666141" fill="#191919"/><path d="m 870.11878,877.24632 c 0,0 -47.86704,-73.99379 -16.48981,-183.03911 -3.66068,-14.75592 -10.20009,45.00673 -53.1846,41.5244 -13.1193,-1.06283 -46.29855,-21.04575 -37.61022,-70.30563 0.8352,-8.68453 3.1769,-3.01972 6.53316,0.85802 13.75162,15.80209 50.97413,48.87438 74.3684,-22.77063 3.63075,-7.7415 -3.29381,-3.42663 -8.67989,-3.48595 -30.69457,-0.55399 -39.37679,-54.66731 11.95849,-49.07621 l 0.0135,-118.35356 c 1.72816,-7.17816 -2.33008,-6.83207 -5.76866,-3.22141 -6.71013,8.77273 -12.22599,17.39122 -16.1093,28.97366 -2.54074,8.64968 -1.98847,9.82485 -5.98635,0.62931 l -5.63524,-12.96175 c -2.93443,-8.11443 -2.86878,-8.52945 -11.12965,-6.59743 l -18.27325,4.27367 c -6.92739,2.43151 -2.39459,-1.09597 0.0996,-3.74665 22.65772,-24.44963 22.55736,-34.37055 31.76561,-50.23402 6.31179,-26.52466 9.53178,-53.04928 6.80797,-79.57393 0.14106,-9.93448 -10.77333,-7.3608 -18.95119,-8.18695 -6.69431,-0.67913 14.6627,77.21108 -30.10683,104.18085 -10.2452,5.68506 -8.43766,4.18906 -6.18302,-4.25085 3.52476,-13.38338 4.44537,-35.14552 3.92357,-55.47107 -0.42746,-8.55368 -0.33531,-18.02362 -1.0615,-27.1782 -2.02156,-10.09009 -0.25721,-23.88395 -11.70167,-26.1264 -8.74288,-0.14753 -7.13767,14.68215 -6.90403,21.10816 1.33174,36.00421 5.56034,112.14873 -0.51297,183.12253 -5.9712,69.78063 -9.83545,128.76347 -66.42311,151.28279 -11.18635,0.71809 -4.78045,-2.98062 -4.83439,-3.42302 20.38645,-22.36549 19.77682,-88.71635 24.31531,-158.08149 5.46186,-83.47763 10.16198,-172.19522 9.05062,-200.12791 0.75538,-10.0786 -12.35908,-14.5277 -17.21794,-4.88641 -9.65584,49.98463 -19.82543,258.57579 -93.28168,240.55935 -6.81245,-1.64907 -7.25974,-2.25039 -3.90903,-7.23174 33.1806,-52.44074 48.01857,-232.7672 47.84445,-303.18658 -0.003,-1.74092 -0.0407,-3.23909 -0.10403,-4.52876 -1.05578,-12.85666 -6.51966,-5.15172 -7.75787,3.05088 -4.59734,30.38876 -17.51138,106.18749 -81.40998,121.65693 -9.41301,2.26471 -10.00432,2.17125 -5.34524,-4.93446 34.02896,-53.16526 65.15826,-159.67408 59.01358,-184.57575 -3.10289,-7.02587 -5.28224,-5.40338 -8.07143,-0.18903 -20.59777,38.11074 -42.43467,62.97454 -78.38826,51.92858 -9.8031,-4.56219 -12.26243,-10.7772 -6.82457,-12.25568 51.73052,-19.78506 70.94359,-57.68444 87.88274,-99.2153 12.67339,-40.89387 31.35763,-61.372885 54.77991,-74.202246 72.58981,-29.639486 73.96511,78.017526 3.59775,61.122796 -1.18775,-1.79097 -3.95573,2.9256 -3.95573,2.9256 l 0.66808,11.47053 c -0.51809,5.9745 1.68449,3.54938 5.5367,1.89797 26.57156,-9.34074 51.68395,31.65549 -3.25776,52.7023 -6.29244,2.67376 -2.5579,9.4431 2.89275,5.46467 34.15813,-18.61677 72.8925,12.95681 36.06614,54.32828 -2.14906,5.29431 3.95717,11.75958 10.94967,7.11601 27.87792,-27.94807 59.63945,0.67357 42.3903,46.23736 -1.89276,4.4711 6.14734,7.18655 6.49376,1.46145 -0.0593,-38.31216 43.18513,-41.21784 50.10285,-0.28948 4.51486,5.57645 11.62613,1.58225 6.96577,-16.3218 -3.80638,-14.09693 -14.48285,-25.10874 -10.5241,-39.00252 7.17363,-24.59378 43.72217,-25.50542 41.6019,-96.68756 8.15284,-7.97611 5.55889,-33.70646 4.27307,-57.315191 -5.92875,-19.17182 -6.58928,-35.255846 -1.86101,-40.596989 -0.39312,-3.499387 2.6892,-1.750105 5.45412,-3.220382 14.21187,-15.268449 55.23753,9.846029 56.43565,40.441844" fill="none" stroke="#000" stroke-width="6.057" stroke-miterlimit="100"/><path d="m 869.39333,877.81879 c 0,0 43.6471,-74.60354 11.41966,-183.65713 3.58381,-14.75704 9.98597,45.01016 52.06815,41.52757 12.84391,-1.06294 45.32668,-21.04737 36.82071,-70.31097 -0.81765,-8.68519 -3.1102,-3.01995 -6.396,0.85809 -13.46296,15.80328 -49.90412,48.87806 -72.80729,-22.77234 -3.55453,-7.7421 3.22466,-3.4269 8.49768,-3.48622 30.05024,-0.55402 38.55022,-54.67146 -11.70746,-49.07993 l -0.0135,-118.36252 c -1.69187,-7.17869 2.28116,-6.8326 5.64756,-3.22163 6.56928,8.77338 11.96936,17.39253 15.77117,28.97582 2.48737,8.65035 1.94672,9.82561 5.86067,0.62938 l 5.51693,-12.96274 c 2.87285,-8.11506 2.80855,-8.53011 10.89604,-6.59792 l 17.88966,4.274 c 6.78195,2.43167 2.34432,-1.09607 -0.0976,-3.74694 -22.18207,-24.45148 -22.08383,-34.37316 -31.09877,-50.23782 -6.17932,-26.52666 -9.3317,-53.05329 -6.66506,-79.57995 -0.13803,-9.93524 10.54716,-7.36136 18.55335,-8.18758 6.55379,-0.6792 -14.35489,77.21691 29.47485,104.18872 10.03014,5.68549 8.26054,4.18939 6.0532,-4.25114 -3.45076,-13.38441 -4.35204,-35.14819 -3.84119,-55.47529 0.41847,-8.55434 0.32825,-18.02497 1.03921,-27.18024 1.97914,-10.09088 0.25183,-23.88576 11.45605,-26.12837 8.55933,-0.14754 6.98782,14.68323 6.75909,21.10974 -1.3038,36.00694 -5.44361,112.15722 0.5022,183.13639 5.84586,69.78589 9.62898,128.77321 65.02876,151.29421 10.9516,0.71817 4.0874,-3.18267 4.7329,-3.42324 -21.5731,-35.08231 -19.3616,-88.72307 -23.8048,-158.09348 -5.3473,-83.48392 -9.9487,-172.20824 -8.8607,-200.14306 -0.7395,-10.07936 12.0997,-14.52879 16.8565,-4.88677 9.4531,49.98841 19.4093,258.59535 91.3236,240.57756 6.6694,-1.6492 7.1073,-2.25055 3.8269,-7.2323 -32.4841,-52.4447 -47.0106,-232.78478 -46.8401,-303.2095 0,-1.74105 0.04,-3.23935 0.102,-4.52913 1.0336,-12.85761 6.3828,-5.15211 7.595,3.05111 4.5009,30.39108 17.1438,106.19553 79.7011,121.66616 9.2154,2.26487 9.7943,2.17141 5.233,-4.93482 -33.3146,-53.16932 -63.7905,-159.68617 -57.7748,-184.58975 3.0378,-7.0264 5.1714,-5.40378 7.902,-0.18903 20.1654,38.11364 41.5439,62.97931 76.7428,51.93249 9.5973,-4.56251 12.005,-10.77799 6.6813,-12.25659 -50.6446,-19.78654 -69.4544,-57.68879 -86.0379,-99.22281 -12.4074,-40.896969 -30.6994,-61.377532 -53.63,-74.207848 -71.06604,-29.641692 -72.41249,78.023418 -3.5222,61.127408 1.1628,-1.79111 3.8726,2.92583 3.8726,2.92583 l -0.654,11.47139 c 0.5072,5.97496 -1.6491,3.54964 -5.4205,1.89813 -26.0138,-9.34146 -50.599,31.65786 3.1894,52.70628 6.1603,2.67397 2.5042,9.44379 -2.832,5.46507 -33.4411,-18.61819 -71.36238,12.9578 -35.3091,54.33239 2.1039,5.29471 -3.8741,11.76047 -10.7198,7.11654 -27.29273,-27.95017 -58.38753,0.67364 -41.50046,46.24089 1.85303,4.47142 -6.0183,7.18708 -6.35745,1.46155 0.0579,-38.31506 -42.27859,-41.22097 -49.05112,-0.28948 -4.42005,5.57687 -11.38205,1.58238 -6.81952,-16.32302 5.95642,-13.76178 11.97246,-21.59615 14.1299,-29.00379 4.0377,-16.12845 -13.74967,-26.07818 -14.76909,-41.22709 -0.39265,-7.36192 1.8159,-13.89963 2.07839,-21.97185 2.98843,-32.82285 -1.348,-46.32575 -4.00154,-60.94117 -0.0337,-2.05022 -2.49555,-9.25229 -0.36882,-9.13844 4.69733,3.64775 11.01751,2.73163 10.16815,-4.12317 -7.76121,-4.42143 -6.28598,-12.540665 -7.74124,-34.503788" fill="none" stroke="#000" stroke-width="5.994" stroke-miterlimit="100"/><path d="m 867.82603,832.59575 c 0,0 -31.6941,-46.44164 -5.9307,-148.7223 -0.052,0.23055 -2.26629,-4.10385 -6.74767,-2.97543 -11.85873,-1.03281 -14.00735,42.20034 -42.87641,47.14719 -12.69648,2.17559 -41.42928,-4.53285 -44.413,-50.98664 0.81766,-8.68518 4.95764,2.38211 8.24344,6.26016 13.46296,15.80327 58.20283,23.73809 75.68351,-32.96374 3.55452,-7.74209 3.09084,-19.08583 -2.18219,-19.14514 -30.05023,-0.55403 -41.42259,-36.68865 8.83509,-31.09712 l -1.13549,-128.47784 c 1.69186,-32.46704 -11.47292,-23.12953 -14.83932,-19.51856 -6.56928,8.77338 -14.26729,22.5057 -18.06909,34.08899 -0.70225,0.18805 0.80237,-0.65286 0.45863,-0.17793 l 1.37689,-6.59129 c -2.87285,-8.11505 -1.65958,-12.46387 -9.74708,-10.53168 l -15.01724,0.90222 c -0.19089,0.68546 0.31243,1.13104 0.42016,0.49501 22.18207,-24.45148 16.01649,-22.31817 25.03143,-38.18283 6.17932,-26.52666 8.18273,-59.79684 5.51609,-86.3235 0.79402,-13.29964 -24.41634,-17.47299 -35.21341,-10.43542 -6.55379,-0.6792 9.67749,82.91629 -18.64118,100.89667 l -0.0599,-0.95909 c 3.45077,-13.38441 2.46175,-27.28072 1.9509,-47.60782 -0.41847,-8.55435 1.3952,-21.39675 0.68423,-30.55202 -5.57982,-34.90821 -24.2641,-37.52391 -24.66914,-32.30999 -8.55933,-0.14754 -9.86027,20.86486 -9.63154,27.29136 1.3038,36.00694 1.99672,115.529 -3.94909,186.50817 -5.84586,69.78589 -6.10422,106.69834 -46.56746,138.21073 -0.86017,0.71817 -1.21491,-0.93482 -1.86046,-1.17539 19.95848,-22.36721 21.00726,-77.88744 25.45047,-147.25786 5.34723,-83.48391 8.22523,-173.89412 7.1372,-201.82894 0.73952,-10.07936 -16.69554,-34.19749 -32.94204,-12.19232 -15.77248,49.98842 -21.87805,235.74094 -73.68539,235.144 -0.009,-0.23641 -3.08164,0.44915 -3.08164,0.44915 32.48408,-52.4447 46.43608,-226.04124 46.2656,-296.46596 0.0535,-13.21888 -11.14534,-39.4237 -27.22947,-7.09763 -4.50085,30.39107 -6.80309,89.89859 -61.89202,115.48453 -9.21542,2.26488 -1.17708,-4.01017 3.38421,-11.1164 33.31461,-53.16931 54.02423,-151.8187 48.00852,-176.72227 -3.03774,-7.02641 -16.661,-7.65163 -19.39164,-2.43689 -20.16539,38.11364 -33.5011,56.23577 -64.67858,60.36196 -9.59733,-4.56251 -7.40916,-7.96817 -2.08546,-9.44678 35.70803,-6.86138 63.13501,-56.56487 79.71858,-98.09889 12.40736,-27.409845 26.10353,-52.948062 49.03414,-65.778378 53.8315,-26.831881 56.32692,61.164488 -4.52054,44.268478 -1.1628,-1.79111 -3.87268,6.8596 -3.87268,6.8596 l 0.0795,18.21493 c -0.50722,5.97496 0.50018,10.85518 8.86737,4.70795 26.01378,-9.34147 39.10935,33.90571 -11.23216,43.15292 -7.3093,8.29359 1.5172,22.36895 6.85345,18.39023 33.44108,-18.61819 72.5113,-1.09129 28.98972,47.58882 -2.10395,5.2947 6.74649,24.12366 19.91155,16.66993 27.29273,-27.95018 54.44389,-11.69329 37.55682,33.87396 -1.85303,12.18681 18.58297,21.23989 20.64558,2.58919 3.96347,-33.81936 38.82789,-29.41972 39.28111,9.26391 10.73935,12.32042 27.99423,-9.0944 23.4317,-26.9998 -22.47703,-46.59478 3.77841,-38.65295 23.23422,-88.69333 15.4483,-37.00951 45.05081,-151.67797 30.40551,-60.71177 -1.25834,5.31984 -16.07628,-4.28005 -14.35398,1.28177" fill="#2d2d2d"/><path d="m 867.15452,832.07874 c 0,0 1.26687,-4.41735 4.86368,-13.54054 8.04201,-20.39823 18.30277,-64.32128 0.50119,-134.99349 -0.35169,-0.17313 3.88091,-5.11301 6.74767,-2.97543 11.85873,-0.83101 14.00735,42.20035 42.87641,47.14719 12.69648,2.17556 40.0165,-4.53287 43.00021,-50.98663 -0.81766,-8.68519 -3.54485,2.38208 -6.83065,6.26016 -13.46296,15.80327 -49.32963,34.82894 -72.23281,-36.82143 -3.55452,-7.7421 -6.54154,-15.22814 -1.26851,-15.28746 30.05023,-0.55402 41.42259,-36.68864 -8.83509,-31.09714 l 1.1355,-128.47784 c -1.69187,-32.46705 11.47291,-23.1295 14.83931,-19.51857 11.32241,7.06711 17.36462,27.71314 19.03248,30.97989 2.87285,-8.11503 -1.13933,-16.12399 6.94817,-14.1918 l 15.01724,0.90222 c 6.78195,2.43168 3.49329,1.71378 1.05133,-0.93709 -22.18208,-24.45151 -17.48798,-20.88607 -26.50291,-36.75069 -6.17933,-26.5267 -8.18274,-59.79684 -5.5161,-86.32353 -0.79402,-13.29961 24.90929,-20.84846 35.21341,-10.43543 6.55379,-0.67917 -9.18455,83.39849 19.13413,101.37887 0.98149,-3.28664 -2.64788,-36.85699 -2.38385,-49.04911 0.41847,-8.55434 -1.3952,-21.39671 -0.68423,-30.55198 5.57982,-34.90824 24.2641,-37.52395 24.66914,-32.31002 8.55933,-0.14754 9.86026,20.86488 9.63154,27.29139 -1.3038,36.0069 -1.99672,115.52899 3.94909,186.50813 5.84586,69.78589 3.88412,106.29469 44.34733,137.80712 10.9516,0.71816 1.2149,-0.93482 1.8605,-1.17543 -19.9585,-22.36721 -18.7872,-77.48379 -23.2304,-146.8542 -5.3472,-83.48392 -8.2252,-173.89409 -7.1372,-201.82895 -0.7395,-10.07932 16.6956,-34.19746 32.9421,-12.19228 15.7724,49.98838 22.2817,238.36465 74.089,237.76775 6.6694,-1.64923 5.9584,2.80714 2.678,-2.17464 -32.4841,-52.44469 -46.4361,-226.0412 -46.2656,-296.46595 -0.053,-13.21886 11.1453,-39.4237 27.2295,-7.09764 4.5008,30.39111 6.8031,89.8986 61.892,115.48454 9.2154,2.2649 1.1771,-4.01017 -3.3842,-11.11641 -33.3146,-53.16928 -54.0243,-151.81869 -48.0085,-176.72224 3.0377,-7.02643 16.6609,-7.65166 19.3916,-2.43688 20.1654,38.11364 33.5011,56.23577 64.6786,60.36193 9.5973,-4.56252 7.4091,-7.96818 2.0854,-9.44679 -35.708,-6.86135 -63.135,-56.56486 -79.7185,-98.09885 -12.4074,-27.409875 -26.1036,-52.948098 -49.0342,-65.778415 -53.8315,-26.831848 -56.3269,61.164485 4.5206,44.268475 1.1628,-1.7911 7.3233,3.48414 7.3233,3.48414 l -1.0653,21.10823 c 0.5072,5.97496 -2.4721,14.23061 -10.8393,8.08341 -26.0137,-9.34147 -35.6586,21.36819 10.7393,40.25966 7.3093,8.29355 -1.5172,22.36892 -6.8535,18.39023 -33.4411,-18.61819 -72.51129,-1.09129 -28.9897,47.58881 2.1039,5.29468 -6.7465,24.12367 -19.9116,16.66993 -27.29269,-27.95017 -52.47201,-11.69328 -35.58494,33.87393 4.31777,11.22245 -20.55482,21.23992 -22.61742,2.58923 -3.96347,-33.81936 -27.98285,-29.41973 -34.84449,5.88842 -10.73936,12.32042 -33.84016,3.73966 -27.59007,-25.95617 18.58224,-17.01918 24.98016,-31.52735 0.18416,-63.80566 8.47819,-33.48859 6.1635,-40.76083 -1.12456,-75.84164 0.12288,-5.37879 -2.39711,-7.68091 5.05106,-28.40705 6.61274,-20.970561 -15.0743,-66.052281 -38.6433,-58.102809 -7.76167,-0.383072 14.04183,59.622419 -2.45623,99.526539 4.97959,18.06706 -11.74282,93.2049 -2.57544,38.66826" fill="#2d2d2d"/><path d="m 841.94227,409.82844 23.5792,34.75159 v -0.48945 l -1.00073,357.25775 v 5.92083 l 2.50181,7.34189 1.93938,-7.34189 v 0 -5.92083 l 0.48914,-357.30507 26.02822,-32.31147 -28.51879,31.33255 z" fill="#4d4d4c" fill-rule="evenodd" stroke="#4d4d4c" stroke-width="1.998"/><path d="m 681.53464,99.982455 c 9.68496,0.931245 17.65902,-5.39045 20.82823,-12.463577 8.59889,-41.764757 -35.65475,-32.947859 -46.77673,-12.205758 28.64067,-29.880919 53.18467,-2.650799 39.99939,15.012725 -4.32944,5.4765 -8.33165,6.98621 -14.64505,7.09824 -12.38321,-0.12368 -24.88093,-2.89196 -23.83601,9.984495 1.02839,-6.55026 2.08301,-8.667795 7.17727,-8.584835 5.8305,0.0949 11.9714,0.0713 17.2529,1.15871 z" fill="#4d4d4c" fill-rule="evenodd" stroke="#4d4d4c" stroke-width="3.33"/><path d="m 680.03306,161.46946 c 10.42025,-5.94816 10.01047,-21.38221 -1.17551,-25.82841 -5.89203,-0.88665 -6.74498,-0.21226 -12.12237,1.7695 -5.13092,2.31209 -8.44168,-0.0679 -9.55778,-7.04624 0.44908,10.32276 7.19781,8.51416 13.46383,7.06777 15.09211,-4.56971 21.51366,17.45623 8.4131,21.82753 -9.79174,6.52868 -29.86247,9.4026 -27.27322,17.92199 1.22731,-8.22096 19.56885,-11.22818 28.25195,-15.71214 z" fill="#4d4d4c" fill-rule="evenodd" stroke="#4d4d4c" stroke-width="3.33"/><path d="m 700.88891,218.24522 c 8.76106,-9.03411 0.42446,-28.41495 -13.81182,-20.67429 v 0 l -12.28144,5.80625 c -4.06747,1.01566 -9.12036,2.33214 -14.9222,-7.08854 12.41805,22.41727 25.60819,-1.10903 35.18011,2.3494 4.53733,2.72843 7.93986,5.77422 6.31405,12.19075 -3.28365,9.63873 -22.00463,20.71502 -11.26839,36.39594 -7.02452,-12.53152 3.60437,-21.48288 10.78969,-28.97951 z" fill="#4d4d4c" fill-rule="evenodd" stroke="#4d4d4c" stroke-width="3.33"/><path d="m 747.54706,273.21663 c 6.8586,-10.34522 -6.0212,-25.94584 -18.74194,-15.44651 v 0 l -11.172,8.26499 c -3.90606,1.91213 -8.74599,4.33725 -16.78599,-2.82076 17.72028,17.3704 25.79224,-7.23144 36.31252,-6.41206 5.23415,1.37888 9.38629,3.32212 9.18998,9.55289 -1.15066,9.56411 -17.67492,24.18695 -3.19489,35.83945 -9.98994,-9.69017 -1.21292,-20.41403 4.39226,-28.97808 z" fill="#4d4d4c" fill-rule="evenodd" stroke="#4d4d4c" stroke-width="3.33"/><path d="m 803.42036,292.16272 c -1.53352,-12.23874 -21.64803,-16.10734 -24.50714,-0.0682 v 0 l -3.13854,13.35354 c -1.73909,3.91938 -3.85728,8.81869 -14.71951,8.38183 24.98688,2.18472 15.0247,-21.74498 23.6272,-27.72519 4.9176,-2.23086 9.37619,-3.34937 13.31591,1.55031 5.39636,8.05445 2.32842,29.64381 21.07788,29.48071 -14.01922,-1.15307 -14.33072,-14.88708 -15.6558,-24.97303 z" fill="#4d4d4c" fill-rule="evenodd" stroke="#4d4d4c" stroke-width="3.33"/><path d="m 1052.864,95.982455 c -9.685,0.93125 -17.659,-5.39045 -20.8282,-12.463577 -8.5989,-41.764757 35.6547,-32.947859 46.7767,-12.205758 -28.6407,-29.880919 -53.1847,-2.650799 -39.9994,15.012727 4.3294,5.476498 8.3317,6.986208 14.6451,7.098238 12.3832,-0.12368 24.8809,-2.89196 23.836,9.984495 -1.0284,-6.550255 -2.083,-8.667795 -7.1773,-8.584835 -5.8305,0.0949 -11.9714,0.0713 -17.2529,1.15871 z" fill="#4d4d4c" fill-rule="evenodd" stroke="#4d4d4c" stroke-width="3.33"/><path d="m 1054.3656,157.46946 c -10.4203,-5.94816 -10.0105,-21.38221 1.1755,-25.82841 5.892,-0.88665 6.745,-0.21226 12.1224,1.7695 5.1309,2.31209 8.4416,-0.0679 9.5577,-7.04624 -0.449,10.32276 -7.1978,8.51416 -13.4638,7.06777 -15.0921,-4.56971 -21.5137,17.45623 -8.4131,21.82753 9.7917,6.52868 29.8625,9.4026 27.2732,17.92199 -1.2273,-8.22096 -19.5688,-11.22818 -28.2519,-15.71214 z" fill="#4d4d4c" fill-rule="evenodd" stroke="#4d4d4c" stroke-width="3.33"/><path d="m 1033.5097,214.24522 c -8.761,-9.03411 -0.4244,-28.41495 13.8118,-20.67429 v 0 l 12.2815,5.80625 c 4.0675,1.01566 9.1203,2.33214 14.9222,-7.08854 -12.4181,22.41727 -25.6082,-1.10903 -35.1801,2.3494 -4.5374,2.72843 -7.9399,5.77422 -6.3141,12.19075 3.2837,9.63873 22.0047,20.71502 11.2684,36.39594 7.0245,-12.53152 -3.6044,-21.48288 -10.7897,-28.97951 z" fill="#4d4d4c" fill-rule="evenodd" stroke="#4d4d4c" stroke-width="3.33"/><path d="m 986.85157,269.21663 c -6.8586,-10.34522 6.0212,-25.94584 18.74193,-15.44651 v 0 l 11.172,8.26499 c 3.9061,1.91213 8.746,4.33725 16.786,-2.82076 -17.7203,17.3704 -25.7922,-7.23144 -36.31252,-6.41206 -5.23415,1.37888 -9.38629,3.32212 -9.18998,9.55289 1.15066,9.56411 17.6749,24.18695 3.19489,35.83945 9.98991,-9.69017 1.21292,-20.41403 -4.39226,-28.97808 z" fill="#4d4d4c" fill-rule="evenodd" stroke="#4d4d4c" stroke-width="3.33"/><path d="m 930.97827,288.16272 c 1.53352,-12.23874 21.64803,-16.10734 24.50714,-0.0682 v 0 l 3.13854,13.35354 c 1.73909,3.91938 3.85728,8.81869 14.71951,8.38183 -24.98688,2.18472 -15.0247,-21.74498 -23.6272,-27.72519 -4.9176,-2.23086 -9.37619,-3.34937 -13.31591,1.55031 -5.39636,8.05445 -2.32842,29.64381 -21.07788,29.48071 14.01922,-1.15307 14.33072,-14.88708 15.6558,-24.97303 z" fill="#4d4d4c" fill-rule="evenodd" stroke="#4d4d4c" stroke-width="3.33"/><path d="m 896.82308,195.6358 c -2.605,14.19478 8.01464,25.18166 15.29529,39.90936 5.45782,8.63319 2.45189,16.32993 -2.0189,24.03202 -10.3934,17.74198 -27.14894,29.78903 -10.91641,49.12683 l -0.18719,-0.1426 c -22.43093,-16.60897 2.64854,-42.86865 8.22584,-56.37385 3.74534,-13.33873 -3.81342,-20.86456 -8.74978,-30.19789 -4.14026,-12.55411 -3.99613,-16.85613 -2.05251,-27.15324 z" fill="#4d4d4c" fill-rule="evenodd" stroke="#4d4d4c" stroke-width="1.343"/><path d="m 903.47154,67.09092 c 8.07238,26.141915 -5.43708,67.81358 1.14692,113.10275 -13.07197,-36.13354 0.29525,-66.9746 -0.49742,-102.771261 -2.58945,-16.42748 -10.53787,-26.201222 -26.92287,-33.805494 18.17171,5.506366 22.18746,16.23815 26.27337,23.474005 z" fill="#4d4d4c" fill-rule="evenodd" stroke="#4d4d4c" stroke-width="1.942"/><path d="m 858.82325,148.86642 c 3.40791,22.94972 3.22274,34.46968 -9.36342,51.9129 -18.16484,33.87132 -43.79018,43.77953 -19.45278,77.02408 -25.58655,-31.54901 25.08772,-60.40935 32.4124,-95.7496 1.39618,-13.89414 -3.19709,-31.79456 -3.59624,-33.5145 z" fill="#4d4d4c" fill-rule="evenodd" stroke="#4d4d4c" stroke-width="1.85"/><path d="m 850.19669,137.98638 c -4.59819,-0.0833 -8.76257,-1.73482 -13.67559,-10.52788 -9.16768,-16.40781 -2.20603,-34.273905 -26.91007,-46.531912 8.5723,-7.110925 25.26592,10.816977 41.71731,34.410702 8.41316,12.0657 -10.25544,-39.927513 -9.58041,-33.715065 0,0 8.53541,6.74299 -17.13773,-12.631827 -8.85334,-5.664035 -25.24253,-5.335826 -32.22328,6.176421 1.1681,-15.49274 -0.73016,-14.955524 5.00096,-30.970925 7.90878,-15.002856 14.36897,-13.679274 24.98856,-17.88012 0,0 7.46532,-0.925927 11.82787,1.68614 13.03429,7.58564 12.65813,0.578842 22.10325,11.398463 -4.65331,7.395096 -5.33923,26.044761 -3.79232,33.595252 0.46466,2.300131 1.97715,10.570372 2.86451,19.853156 1.11899,11.705745 -5.18306,45.137595 -5.18306,45.137595 z" fill="#eb0026"/><path d="m 792.97052,72.993728 c -2.40065,-10.230863 0.1331,-14.052449 5.01181,-26.633157 8.93595,-26.090938 35.22045,-20.581398 54.25674,-10.088545 9.2084,8.266589 2.30428,7.317262 -0.93705,15.169989 -40.67761,-26.176699 -55.24068,9.008861 -58.20482,22.300978 z" fill="#f4515a"/><path d="m 826.37864,42.270229 c 10.48696,-13.825088 9.34076,4.349413 14.13334,-3.873412 2.15604,-5.364654 -11.97169,-7.989849 -14.13334,3.873412 z m -33.43017,34.156767 c -2.43968,-0.287559 18.27535,-15.448221 9.49807,-8.154483 3.78459,-4.979528 16.47776,-4.377493 24.29324,1.177799 18.29092,4.630816 28.63157,47.187748 25.72653,47.451338 l 1.58813,-2.12072 c 1.78561,-2.22076 5.89451,-34.496056 -10.81042,-49.894208 -17.92444,-14.658017 -46.4019,-12.193841 -50.29555,11.540274 z m 28.97779,9.54646 c -4.55169,-3.898445 -12.25432,-6.613621 -12.28175,-2.4095 18.75241,3.508396 20.97884,19.520814 24.355,33.378374 2.63364,10.80989 6.39655,20.24725 16.44219,21.81531 -0.69773,0.61167 2.09082,-2.55644 1.95789,-5.26951 -22.87051,-14.04343 -11.13824,-28.45616 -30.47333,-47.514674 z" fill="#ba131c"/><path d="m 811.68691,82.052833 c 9.93379,-5.310911 16.3989,1.329161 21.10973,9.050312 19.39616,24.375495 21.32507,25.483945 21.21272,26.095045 0,0 -0.95063,19.75509 -4.4992,22.06939 2.66813,-1.26642 4.09417,-15.8617 4.1689,-15.13184 -10.68562,7.49885 -16.47751,-43.288273 -42.7956,-42.480502 z" fill="#f4515a"/><path d="m 864.68756,60.886433 c -8.14877,21.758773 12.87666,40.593147 27.87492,37.912212 6.54159,-19.938388 -10.6086,-38.15377 -27.87492,-37.912212 z" fill="#fff" stroke="#8c8c8c" stroke-width="2.732"/><path d="m 883.39409,87.624857 c 5.24717,-2.940549 7.23436,-9.002426 4.47838,-13.639876 -2.7616,-4.643932 -9.1617,-6.008197 -14.40886,-3.067649 -5.24132,2.935359 -7.23435,9.002426 -4.47275,13.646357 2.75035,4.630966 9.15628,5.990046 14.40323,3.061168 z" fill="#1a1a1a"/><path d="m 882.36624,76.566568 c 1.67162,-0.934333 2.42106,-2.680078 1.67925,-3.938947 -0.74202,-1.247197 -2.67977,-1.500598 -4.35159,-0.554594 -1.67746,0.939522 -2.4269,2.685267 -1.68488,3.932465 0.74765,1.253679 2.68561,1.495409 4.35722,0.561076 z" fill="#fff"/><path d="m 914.79885,462.74879 14.77485,4.99278 -7.00253,-10.34061 -15.60331,-26.01858 -2.64574,-69.0152 6.98449,67.27145 14.06176,27.01025 14.4134,18.18772 -20.95343,-7.095 -8.59626,14.19004 z" fill="#4d4d4c" fill-rule="evenodd" stroke="#4d4d4c" stroke-width="2.331"/><path d="m 827.38803,468.4048 -1.90127,17.19879 c 0.49415,-4.21122 1.80744,-10.25887 3.39275,-13.58579 6.03884,-12.67309 11.66684,-19.31033 17.36608,-27.6359 l -0.46527,-0.49105 -0.0168,-0.0731 c -19.98145,19.7651 -4.8286,4.27873 -20.45039,20.53717 l 0.22052,21.35189 0.19021,-21.55288 -24.57471,6.13699 z" fill="#4d4d4c" fill-rule="evenodd" stroke="#4d4d4c" stroke-width="2.331"/><path d="m 992.73842,325.63179 c 2.5111,-0.9177 4.56731,-2.4264 6.7029,-3.95619 0.0687,-0.0527 4.31298,181.10893 4.31298,181.10893 -0.058,5.82842 -2.0341,6.08407 -2.5055,-1.72909 -5.48119,-167.87905 -6.49172,-153.74888 -8.51038,-175.16997 z" fill="#b3b3b3" fill-rule="evenodd"/><path d="m 1057.5706,288.92168 c -2.3758,2.24182 7.8234,91.47327 17.0666,143.68108 2.9643,14.82448 6.9749,30.78824 10.7623,42.9461 0.4575,3.82651 -0.3131,5.32702 -2.8691,2.04924 -4.3346,-5.38959 -5.4079,-12.61451 -6.9507,-18.79514 -13.9356,-55.90908 -19.8214,-105.07566 -25.8409,-161.86031 3.1133,-2.76381 5.3732,-4.46494 7.8318,-8.02097 z" fill="#b3b3b3" fill-rule="evenodd"/><path d="m 1103.8919,215.97768 c 11.6717,76.57999 20.5949,88.93281 31.8891,113.45862 l 0.3694,-0.3885 -0.3554,0.76341 c -20.4356,-15.27534 -35.3536,-91.06669 -35.8565,-107.21108 1.7757,-2.93584 2.4475,-4.23197 3.9534,-6.62245 z" fill="#b3b3b3"/><path d="m 949.16242,335.47055 1.81206,-0.003 c -1.80728,20.35729 -2.83817,40.71334 -2.31557,61.06704 0.74948,6.48536 -1.96295,3.33483 -1.81202,0.003 -3.20154,-19.75845 -2.44209,-38.39396 -2.33975,-58.79443 z" fill="#b3b3b3" fill-rule="evenodd"/><path d="m 1159.0564,202.48061 -0.1764,-0.0471 -0.2424,-0.0132 c -11.139,-3.28153 -34.4037,-40.3135 -36.0857,-50.63165 1.6599,-2.98403 2.982,0.40204 2.695,-1.01946 6.967,23.12666 33.6096,51.48421 33.8095,51.71138 z" fill="#b3b3b3"/><path d="m 742.01958,325.08079 c -2.5111,-0.9177 -4.56731,-2.4264 -6.7029,-3.95619 -0.0687,-0.0527 -4.31302,181.10893 -4.31302,181.10893 0.0582,5.82842 2.03415,6.08407 2.50555,-1.72909 5.48118,-167.87905 6.49171,-153.74888 8.51037,-175.16997 z" fill="#b3b3b3" fill-rule="evenodd"/><path d="m 677.18738,288.37068 c 2.37586,2.24182 -7.82339,91.47327 -17.06662,143.68108 -2.96425,14.82448 -6.97485,30.78824 -10.76228,42.9461 -0.45743,3.82651 0.31309,5.32702 2.86908,2.04924 4.33467,-5.38959 5.40799,-12.61451 6.95075,-18.79514 13.93557,-55.90908 19.82139,-105.07566 25.84087,-161.86031 -3.1133,-2.76381 -5.37319,-4.46494 -7.8318,-8.02097 z" fill="#b3b3b3" fill-rule="evenodd"/><path d="m 630.86606,215.42668 c -11.67168,76.57999 -20.59487,88.93281 -31.88909,113.45862 l -0.36932,-0.3885 0.35538,0.76341 c 20.43557,-15.27534 35.3536,-91.06669 35.85644,-107.21108 -1.77567,-2.93584 -2.44744,-4.23197 -3.95341,-6.62245 z" fill="#b3b3b3"/><path d="m 785.59558,334.91955 -1.81206,-0.003 c 1.80728,20.35729 2.83817,40.71334 2.31557,61.06704 -0.74948,6.48536 1.96295,3.33483 1.81202,0.003 3.20154,-19.75845 2.44209,-38.39396 2.33975,-58.79443 z" fill="#b3b3b3" fill-rule="evenodd"/><path d="m 577.92956,203.01928 0.17641,-0.0471 0.2424,-0.0132 c 11.13894,-3.28154 34.40365,-40.31351 36.08562,-50.63166 -1.65985,-2.98402 -2.98196,0.40204 -2.69499,-1.01946 -6.96694,23.12667 -33.60953,51.48422 -33.80944,51.71138 z" fill="#b3b3b3"/><g transform="translate(-1.0001268)"><path d="m 922.75515,494.07064 c 17.82177,17.56827 36.10357,32.34224 49.52265,49.45529 0,0 -3.29489,4.43439 -6.06107,5.7144 -6.64113,3.10007 -14.86369,4.85347 -23.00951,4.81217 -17.11191,-0.27704 -26.15773,6.0815 -28.15771,11.8594 -2.40861,6.97398 -0.28152,15.15078 12.66989,22.78001 -3.87898,-7.79859 -7.00458,-15.12422 -1.75397,-18.12727 18.15565,-10.37778 25.95788,3.19512 47.4341,-11.68719 0,0 3.8021,3.63564 3.79521,6.25149 -0.007,6.3333 -2.17028,12.72666 -6.32094,17.81916 -8.70015,10.59865 -6.56417,20.59717 -1.45627,25.92662 6.11138,6.31753 15.7668,10.58621 30.09285,7.78943 -10.08774,-2.99662 -19.00859,-4.90632 -20.27697,-12.6513 -3.24877,-19.07711 21.54509,-19.59644 14.37797,-42.62808 21.07652,11.82011 51.39682,4.29151 61.02962,11.97991 7.296,5.8824 5.36,10.28215 3.9922,18.10204 10.4432,-7.62334 10.065,-15.80075 5.48,-22.75671 -3.9036,-5.84249 -14.8796,-12.1183 -31.9344,-11.87194 -8.1813,0.0873 -16.9327,-1.70609 -24.5615,-4.81999 -3.1571,-1.28616 -5.3797,-5.03875 -5.3797,-5.03875 25.1681,-1.95082 20.6066,-26.02462 32.8253,-27.44966 9.619,-1.12834 15.4497,3.65817 23.8889,9.23595 -2.4156,-10.42598 -16.1686,-18.69738 -25.6428,-18.48028 -14.85,0.34578 -21.304,3.48818 -25.5353,14.82464 -2.2364,5.93032 -8.20879,10.57987 -14.53675,13.97302 -2.69429,1.37325 -9.28517,2.44708 -9.28517,2.44708 -15.30396,-14.37757 -30.97147,-36.20404 -46.35313,-55.81375 -10.85036,-3.71276 0.34025,-0.54546 -10.62764,-3.58424 -4.5977,11.36759 -5.15482,11.52437 -4.21586,11.93855 z" fill="#eb0026" stroke="#782121" stroke-width="5.361" stroke-miterlimit="100"/><path d="m 927.99394,485.52279 6.64487,0.46464 c 18.94564,21.42673 32.21986,42.29536 48.3333,58.2155 3.64457,-0.9261 5.61011,-1.02069 9.23199,-2.24452 3.94981,-1.36092 7.36587,-2.91314 8.8902,-4.29116 6.7169,-5.98858 9.0439,-11.52987 12.7494,-17.89801 1.5549,-2.60232 4.3909,-4.52869 7.5569,-5.86228 3.16,-1.33163 8.3693,-1.94452 13.9499,-1.37111 4.6292,0.49021 13.23,4.72268 18.1104,9.78607 -6.2049,-3.35501 -13.7076,-6.95192 -17.9745,-7.34381 -5.2882,-0.58194 -8.8184,-0.0668 -11.5452,1.0866 -2.6194,1.09862 -4.5583,2.95066 -6.2432,5.30031 -3.3698,4.70901 -6.0216,11.48705 -12.9906,17.70788 -2.1418,1.87009 -5.72333,3.31764 -9.76671,4.65738 -4.14675,1.37699 -7.91633,1.68839 -11.86516,2.67561 l -0.83901,0.23377 -0.69225,-0.68137 c -16.5596,-17.45731 -32.16504,-36.11539 -50.30808,-57.26392 z m 118.43426,74.75467 c 2.8292,0.69922 5.5815,1.66723 7.3146,2.46075 3.361,1.62818 6.6491,4.26085 9.4733,8.30578 2.2394,3.31852 2.1675,9.13428 -0.5759,14.41973 0.085,-5.50827 0.5967,-9.68636 -1.4388,-12.66286 -2.6027,-3.76718 -5.4683,-6.1557 -8.3231,-7.50881 -2.9405,-1.38014 -9.9618,-2.74588 -13.5836,-2.98956 -7.4545,-0.45375 -10.9671,0.72114 -22.3419,-1.43331 -8.97,-1.69547 -14.3616,-4.48037 -20.1056,-10.33758 6.2906,4.16446 10.0671,6.41245 18.5093,7.90492 10.8687,1.87938 13.9016,0.66096 23.4143,0.68121 1.9301,0.0437 4.8242,0.46831 7.6574,1.15973 z m -72.26658,-14.67968 c -3.25454,6.1159 -7.54012,9.13593 -15.76564,11.26693 -10.3231,2.70082 -14.44425,1.75775 -21.54523,2.55457 -3.60614,0.41996 -9.97444,2.13161 -12.2108,3.62046 -2.3417,1.52999 -4.24124,3.96971 -5.33921,7.78536 -0.91282,3.11839 1.41614,7.19963 3.58751,12.60866 -4.79675,-5.0422 -7.45852,-10.06265 -6.56044,-13.48462 1.18658,-4.15648 3.64841,-7.62531 6.44307,-9.41143 2.80062,-1.78809 9.44173,-4.15439 13.2832,-4.37255 9.36593,-0.53212 12.96025,0.56802 22.89232,-1.78341 7.77257,-1.87486 10.75438,-4.35241 15.21522,-8.78397 z m 3.2212,11.79411 c 4.23743,6.43719 6.20493,11.5042 3.8288,17.98374 -2.28948,6.14261 -8.77201,15.68065 -10.00382,25.20905 -0.35153,2.45325 1.69575,5.37717 4.95627,8.86628 2.56628,2.81164 7.94197,4.14074 14.53093,6.78825 -7.65441,-0.79383 -14.77018,-3.27455 -17.64568,-6.38707 -3.49388,-3.70455 -5.13056,-7.0947 -5.3196,-10.05843 -0.72192,-10.22015 8.36231,-17.09456 11.32929,-26.55736 1.89947,-6.15717 0.25984,-9.90348 -1.67619,-15.84446 z" fill="#f4515a"/><path d="m 1042.8048,527.41053 a 11.148261,7.8490474 79.552024 1 0 -3.8835,-21.9551 11.148261,7.8490474 79.552024 1 0 3.8835,21.9551 z" fill="#eb0026" fill-rule="evenodd" stroke="#782121" stroke-width="4.995"/><path d="m 1039.531,525.13335 c 6.3749,-4.11082 2.9467,-13.34736 -1.9177,-17.42701 -1.974,1.0001 -3.3623,4.75594 -3.0331,8.23091 0.3913,4.13117 2.4266,8.25654 4.9508,9.1961 z" fill="#f4515a" fill-rule="evenodd"/><path d="m 1047.5315,576.76091 a 7.8204903,11.188971 27.025987 1 0 9.8386,-20.09559 7.8204903,11.188971 27.025987 1 0 -9.8386,20.09559 z" fill="#eb0026" fill-rule="evenodd" stroke="#782121" stroke-width="4.995"/><path d="m 1046.212,573.04944 c 7.6307,0.26248 10.3073,-9.20876 8.7589,-15.29083 -2.2012,-0.30362 -5.5574,1.97072 -7.3473,4.98958 -2.1279,3.58893 -2.9124,8.10484 -1.4116,10.30125 z" fill="#f4515a" fill-rule="evenodd"/><path d="m 965.43664,609.614 a 7.686788,11.383589 70.863758 1 0 21.53075,-7.40039 7.686788,11.383589 70.863758 1 0 -21.53075,7.40039 z" fill="#eb0026" fill-rule="evenodd" stroke="#782121" stroke-width="4.995"/><path d="m 967.24164,606.06599 c 5.09034,5.49237 13.88079,0.64119 17.26386,-4.74604 -1.30148,-1.7459 -5.29081,-2.46789 -8.74117,-1.57305 -4.10194,1.06382 -7.95289,3.71875 -8.52269,6.31909 z" fill="#f4515a" fill-rule="evenodd"/><path d="m 920.3838,554.77844 a 11.198727,7.8136832 60.171707 0 0 10.79786,19.61864 11.198727,7.8136832 60.171707 1 0 -10.79786,-19.61864 z" fill="#eb0026" fill-rule="evenodd" stroke="#782121" stroke-width="4.995"/><path d="m 924.22664,555.92299 c -4.71398,5.87556 1.53057,13.57272 7.46613,15.93361 1.54806,-1.56061 1.64773,-5.55326 0.20944,-8.74694 -1.7099,-3.79677 -4.97707,-7.07827 -7.67557,-7.18667 z" fill="#f4515a" fill-rule="evenodd"/></g><path d="m 850.87245,138.8239 c 14.71029,-56.668344 -8.64321,-70.783488 6.18062,-98.148" fill="none" stroke="#780000" stroke-width="3.035" stroke-linecap="round" stroke-linejoin="round"/><path d="m 856.97676,40.409629 c -8.03627,-7.332451 -16.97729,-11.870792 -27.04322,-13.66149 -10.00161,-2.121401 -18.59964,0.73024 -25.89908,8.529274 -1.27828,1.230188 -2.38252,2.724371 -3.42081,4.46086 -3.66473,5.671817 -6.18309,13.628438 -7.56084,23.875581 -0.64273,3.760688 -1.04281,8.025916 -1.15679,12.579914 0.81757,-1.210386 1.59035,-2.198397 2.58151,-3.142588 9.24285,-10.041123 20.74462,-10.821146 34.48577,-2.231741 15.08366,9.319223 22.80379,23.907106 23.00308,43.963451 -18.03875,-29.355845 -32.43543,-40.365219 -43.19621,-33.031647 10.90453,1.615357 18.07945,9.805802 21.56998,24.346757 0.63601,2.52829 1.18344,4.92657 1.88817,7.12505 2.83907,22.30857 14.8467,25.00511 18.70197,25.17299" fill="none" stroke="#780000" stroke-width="3.372" stroke-linecap="round" stroke-linejoin="round"/><path d="m 867.84591,872.66989 h 5.28116 l 1.69745,1.12952 -3.77225,7.15364 h -2.07468 l 0.18856,-0.1882 h -0.18856 l -4.14948,-7.90676 z" fill-rule="evenodd"/><g transform="matrix(-1,0,0,1,1733.3365,6.9010212e-5)"><path d="m 922.75515,494.07064 c 17.82177,17.56827 36.10357,32.34224 49.52265,49.45529 0,0 -3.29489,4.43439 -6.06107,5.7144 -6.64113,3.10007 -14.86369,4.85347 -23.00951,4.81217 -17.11191,-0.27704 -26.15773,6.0815 -28.15771,11.8594 -2.40861,6.97398 -0.28152,15.15078 12.66989,22.78001 -3.87898,-7.79859 -7.00458,-15.12422 -1.75397,-18.12727 18.15565,-10.37778 25.95788,3.19512 47.4341,-11.68719 0,0 3.8021,3.63564 3.79521,6.25149 -0.007,6.3333 -2.17028,12.72666 -6.32094,17.81916 -8.70015,10.59865 -6.56417,20.59717 -1.45627,25.92662 6.11138,6.31753 15.7668,10.58621 30.09285,7.78943 -10.08774,-2.99662 -19.00859,-4.90632 -20.27697,-12.6513 -3.24877,-19.07711 21.54509,-19.59644 14.37797,-42.62808 21.07652,11.82011 51.39682,4.29151 61.02962,11.97991 7.296,5.8824 5.36,10.28215 3.9922,18.10204 10.4432,-7.62334 10.065,-15.80075 5.48,-22.75671 -3.9036,-5.84249 -14.8796,-12.1183 -31.9344,-11.87194 -8.1813,0.0873 -16.9327,-1.70609 -24.5615,-4.81999 -3.1571,-1.28616 -5.3797,-5.03875 -5.3797,-5.03875 25.1681,-1.95082 20.6066,-26.02462 32.8253,-27.44966 9.619,-1.12834 15.4497,3.65817 23.8889,9.23595 -2.4156,-10.42598 -16.1686,-18.69738 -25.6428,-18.48028 -14.85,0.34578 -21.304,3.48818 -25.5353,14.82464 -2.2364,5.93032 -8.20879,10.57987 -14.53675,13.97302 -2.69429,1.37325 -9.28517,2.44708 -9.28517,2.44708 -15.30396,-14.37757 -30.97147,-36.20404 -46.35313,-55.81375 -10.85036,-3.71276 0.34025,-0.54546 -10.62764,-3.58424 -4.5977,11.36759 -5.15482,11.52437 -4.21586,11.93855 z" fill="#eb0026" stroke="#782121" stroke-width="5.361" stroke-miterlimit="100"/><path d="m 927.99394,485.52279 6.64487,0.46464 c 18.94564,21.42673 32.21986,42.29536 48.3333,58.2155 3.64457,-0.9261 5.61011,-1.02069 9.23199,-2.24452 3.94981,-1.36092 7.36587,-2.91314 8.8902,-4.29116 6.7169,-5.98858 9.0439,-11.52987 12.7494,-17.89801 1.5549,-2.60232 4.3909,-4.52869 7.5569,-5.86228 3.16,-1.33163 8.3693,-1.94452 13.9499,-1.37111 4.6292,0.49021 13.23,4.72268 18.1104,9.78607 -6.2049,-3.35501 -13.7076,-6.95192 -17.9745,-7.34381 -5.2882,-0.58194 -8.8184,-0.0668 -11.5452,1.0866 -2.6194,1.09862 -4.5583,2.95066 -6.2432,5.30031 -3.3698,4.70901 -6.0216,11.48705 -12.9906,17.70788 -2.1418,1.87009 -5.72333,3.31764 -9.76671,4.65738 -4.14675,1.37699 -7.91633,1.68839 -11.86516,2.67561 l -0.83901,0.23377 -0.69225,-0.68137 c -16.5596,-17.45731 -32.16504,-36.11539 -50.30808,-57.26392 z m 118.43426,74.75467 c 2.8292,0.69922 5.5815,1.66723 7.3146,2.46075 3.361,1.62818 6.6491,4.26085 9.4733,8.30578 2.2394,3.31852 2.1675,9.13428 -0.5759,14.41973 0.085,-5.50827 0.5967,-9.68636 -1.4388,-12.66286 -2.6027,-3.76718 -5.4683,-6.1557 -8.3231,-7.50881 -2.9405,-1.38014 -9.9618,-2.74588 -13.5836,-2.98956 -7.4545,-0.45375 -10.9671,0.72114 -22.3419,-1.43331 -8.97,-1.69547 -14.3616,-4.48037 -20.1056,-10.33758 6.2906,4.16446 10.0671,6.41245 18.5093,7.90492 10.8687,1.87938 13.9016,0.66096 23.4143,0.68121 1.9301,0.0437 4.8242,0.46831 7.6574,1.15973 z m -72.26658,-14.67968 c -3.25454,6.1159 -7.54012,9.13593 -15.76564,11.26693 -10.3231,2.70082 -14.44425,1.75775 -21.54523,2.55457 -3.60614,0.41996 -9.97444,2.13161 -12.2108,3.62046 -2.3417,1.52999 -4.24124,3.96971 -5.33921,7.78536 -0.91282,3.11839 1.41614,7.19963 3.58751,12.60866 -4.79675,-5.0422 -7.45852,-10.06265 -6.56044,-13.48462 1.18658,-4.15648 3.64841,-7.62531 6.44307,-9.41143 2.80062,-1.78809 9.44173,-4.15439 13.2832,-4.37255 9.36593,-0.53212 12.96025,0.56802 22.89232,-1.78341 7.77257,-1.87486 10.75438,-4.35241 15.21522,-8.78397 z m 3.2212,11.79411 c 4.23743,6.43719 6.20493,11.5042 3.8288,17.98374 -2.28948,6.14261 -8.77201,15.68065 -10.00382,25.20905 -0.35153,2.45325 1.69575,5.37717 4.95627,8.86628 2.56628,2.81164 7.94197,4.14074 14.53093,6.78825 -7.65441,-0.79383 -14.77018,-3.27455 -17.64568,-6.38707 -3.49388,-3.70455 -5.13056,-7.0947 -5.3196,-10.05843 -0.72192,-10.22015 8.36231,-17.09456 11.32929,-26.55736 1.89947,-6.15717 0.25984,-9.90348 -1.67619,-15.84446 z" fill="#f4515a"/><path d="m 1042.8048,527.41053 a 11.148261,7.8490474 79.552024 1 0 -3.8835,-21.9551 11.148261,7.8490474 79.552024 1 0 3.8835,21.9551 z" fill="#eb0026" fill-rule="evenodd" stroke="#782121" stroke-width="4.995"/><path d="m 1039.531,525.13335 c 6.3749,-4.11082 2.9467,-13.34736 -1.9177,-17.42701 -1.974,1.0001 -3.3623,4.75594 -3.0331,8.23091 0.3913,4.13117 2.4266,8.25654 4.9508,9.1961 z" fill="#f4515a" fill-rule="evenodd"/><path d="m 1047.5315,576.76091 a 7.8204903,11.188971 27.025987 1 0 9.8386,-20.09559 7.8204903,11.188971 27.025987 1 0 -9.8386,20.09559 z" fill="#eb0026" fill-rule="evenodd" stroke="#782121" stroke-width="4.995"/><path d="m 1046.212,573.04944 c 7.6307,0.26248 10.3073,-9.20876 8.7589,-15.29083 -2.2012,-0.30362 -5.5574,1.97072 -7.3473,4.98958 -2.1279,3.58893 -2.9124,8.10484 -1.4116,10.30125 z" fill="#f4515a" fill-rule="evenodd"/><path d="m 965.43664,609.614 a 7.686788,11.383589 70.863758 1 0 21.53075,-7.40039 7.686788,11.383589 70.863758 1 0 -21.53075,7.40039 z" fill="#eb0026" fill-rule="evenodd" stroke="#782121" stroke-width="4.995"/><path d="m 967.24164,606.06599 c 5.09034,5.49237 13.88079,0.64119 17.26386,-4.74604 -1.30148,-1.7459 -5.29081,-2.46789 -8.74117,-1.57305 -4.10194,1.06382 -7.95289,3.71875 -8.52269,6.31909 z" fill="#f4515a" fill-rule="evenodd"/><path d="m 920.3838,554.77844 a 11.198727,7.8136904 60.171707 0 0 10.79786,19.61864 11.198727,7.8136904 60.171707 1 0 -10.79786,-19.61864 z" fill="#eb0026" fill-rule="evenodd" stroke="#782121" stroke-width="4.995"/><path d="m 924.22664,555.92299 c -4.71398,5.87556 1.53057,13.57272 7.46613,15.93361 1.54806,-1.56061 1.64773,-5.55326 0.20944,-8.74694 -1.7099,-3.79677 -4.97707,-7.07827 -7.67557,-7.18667 z" fill="#f4515a" fill-rule="evenodd"/></g></g></g></svg>