<svg width="408" height="480" xmlns="http://www.w3.org/2000/svg" xmlns:xlink="http://www.w3.org/1999/xlink">
<pattern id="c" patternTransform="rotate(-45 72 110)" xlink:href="#a"/>
<pattern id="a" width="93" height="93" patternTransform="rotate(-45 0 80)" patternUnits="userSpaceOnUse">
<path d="m0 0h95v95h-95" fill="#1353b4"/>

<g transform="rotate(45,-10,70)">
<path id="b" d="m11-49c-5 15-19 12-19 26 0 5 2 9 6 13-10-10-32-1-26 18 3 8 9 11 18 14-9-17 11-21 10-1h-2l-4 5 4 5h1c-1 6-4 11-9 17 0 0 10-3 13-5-2 13 4 17 8 21z" fill="#fee46e"/>
<use transform="matrix(-1,0,0,1,22,0)" xlink:href="#b"/>
<path d="m19-38c7 8 11 15 4 24-11 13-11 20-10 35h2c0-15 2-24 12-35 6-8 4-17-8-24zm-26 19c2 7 6 9 8 12 5 8 7 16 6 28h3c1-25-5-29-17-40zm-3 18c-8 0-14 11 0 23-9-17 11-21 10-1h3c1-16-7-22-13-22zm42 0c-7 0-14 6-13 22h3c-2-19 19-17 10 1 14-12 8-23 0-23zm-36 29 2 3h5c-1 7-5 12-13 17l13-5c0 6-1 8 1 12 1-21 4-16 5-24h5c3 14 3 22-3 33 5-4 9-10 8-21l13 5c-6-4-11-10-14-17h6c1-1 1-2 2-3z" fill="#e4c900"/>
<path d="m-4 24h30l-2-3h-26zm13 31v-10s-3 4-3 5v4c0 2 3 6 3 6zm5-67v-21c3 6 11 5 6 13-2 3-5 5-6 8zm-6 4v-29c-5 4-14 9-11 16 3 6 9 6 11 13zm20 3c9-1 15 2 18 10 2-13-12-17-18-10zm-51 14c1-15 13-18 23-9-12-20-32-4-23 9z" fill="#fff6c6"/>
<path d="m11 31v33m0-113v70" fill="#fff6c6" stroke="#d7ac00"/>
<path d="m11 21h13l4 5-4 5h-13m0-10h4c-1-10 1-22 9-31 4-4 6-8 6-13 0-14-14-11-19-26-5 15-19 12-19 26 0 5 2 9 6 13 8 9 10 21 9 31h4m0 10h6c2 14 6 23-6 33-12-10-8-19-6-33h6m6 0 2 12c3 2 13 5 13 5-5-6-8-11-9-17m-8-10h7c-1-20 19-16 10 1 9-3 15-6 18-14 6-19-16-28-26-18-8 9-10 21-9 31zm-4 0h-13l-4 5 4 5h13m-6 0-2 12c-3 2-13 5-13 5 5-6 8-11 9-17m8-10h-7c1-20-19-16-10 1-9-3-15-6-18-14-6-19 16-28 26-18 8 9 10 21 9 31z" fill="none" stroke="#806600"/>
</g>
</pattern>
<path d="m1 1v205c0 154 68 214 203 273 135-59 203-119 203-273v-205z" fill="url(#c)" stroke="#540" stroke-width="2"/>
</svg>
