<?xml version="1.0" encoding="UTF-8"?>
<svg xmlns="http://www.w3.org/2000/svg" xmlns:xlink="http://www.w3.org/1999/xlink" width="200px" height="235px" viewBox="0 0 200 235" version="1.1">
<defs>
<clipPath id="clip1">
  <rect x="0" y="0" width="45" height="45"/>
</clipPath>
<g id="surface5" clip-path="url(#clip1)">
<rect x="0" y="0" width="45" height="45" style="fill:rgb(7.45098%,32.54902%,70.588235%);fill-opacity:1;stroke:none;"/>
<path style=" stroke:none;fill-rule:nonzero;fill:rgb(99.607843%,89.411765%,43.137255%);fill-opacity:1;" d="M 43.0625 0.339844 C 36.21875 3.761719 32.457031 -2.054688 27.664062 2.734375 C 25.953125 4.445312 25.269531 6.5 25.269531 9.234375 C 25.269531 2.394531 14.664062 -2.054688 10.214844 6.5 C 8.503906 10.261719 9.53125 13.34375 11.585938 17.449219 C 14.320312 8.550781 22.53125 14.027344 15.347656 20.527344 L 14.664062 19.84375 L 11.585938 20.183594 L 11.242188 23.265625 L 11.585938 23.605469 C 9.1875 25.316406 6.453125 26 2.6875 26.34375 C 2.6875 26.34375 7.136719 28.738281 8.847656 29.082031 C 3.714844 32.84375 4.398438 36.265625 4.398438 39.003906 Z M 43.0625 0.339844 "/>
<path style=" stroke:none;fill-rule:nonzero;fill:rgb(99.607843%,89.411765%,43.137255%);fill-opacity:1;" d="M 43.0625 0.339844 C 39.640625 7.183594 45.457031 10.945312 40.667969 15.738281 C 38.957031 17.449219 36.902344 18.132812 34.167969 18.132812 C 41.007812 18.132812 45.457031 28.738281 36.902344 33.1875 C 33.140625 34.898438 30.058594 33.871094 25.953125 31.816406 C 34.851562 29.082031 29.375 20.871094 22.875 28.054688 L 23.558594 28.738281 L 23.21875 31.816406 L 20.136719 32.160156 L 19.796875 31.816406 C 18.085938 34.214844 17.402344 36.949219 17.058594 40.714844 C 17.058594 40.714844 14.664062 36.265625 14.320312 34.554688 C 10.558594 39.6875 7.136719 39.003906 4.398438 39.003906 Z M 43.0625 0.339844 "/>
<path style=" stroke:none;fill-rule:nonzero;fill:rgb(89.411765%,78.823529%,0%);fill-opacity:1;" d="M 42.035156 6.839844 C 41.695312 11.972656 40.667969 15.738281 35.191406 16.421875 C 26.980469 17.105469 24.585938 19.5 19.796875 24.976562 L 20.480469 25.660156 C 25.613281 20.527344 29.375 18.132812 36.5625 17.789062 C 41.351562 17.105469 43.746094 13.34375 42.035156 6.839844 Z M 26.640625 4.445312 C 24.929688 7.527344 25.613281 9.578125 25.269531 11.289062 C 24.242188 15.738281 22.191406 19.160156 17.742188 22.921875 L 18.769531 23.949219 C 27.664062 15.738281 26.980469 12.316406 26.640625 4.445312 Z M 19.453125 9.578125 C 16.714844 6.839844 10.898438 8.550781 11.585938 17.449219 C 14.320312 8.550781 22.53125 14.027344 15.347656 20.527344 L 16.375 21.554688 C 22.191406 16.421875 21.507812 11.632812 19.453125 9.578125 Z M 33.824219 23.949219 C 31.429688 21.554688 26.980469 21.210938 21.847656 27.027344 L 22.875 28.054688 C 28.691406 20.871094 35.191406 28.738281 25.953125 31.816406 C 34.851562 32.503906 36.5625 26.6875 33.824219 23.949219 Z M 11.585938 21.554688 L 11.242188 23.265625 L 12.953125 24.976562 C 10.214844 27.027344 7.136719 27.371094 2.6875 26.34375 L 8.847656 29.082031 C 6.792969 31.132812 5.769531 31.476562 5.082031 33.527344 C 12.609375 26.6875 11.925781 29.421875 15.007812 27.027344 L 16.714844 28.738281 C 12.953125 34.554688 10.214844 37.292969 4.398438 39.003906 C 7.480469 39.34375 10.898438 38.660156 14.320312 34.554688 L 17.058594 40.714844 C 16.375 37.292969 16.714844 33.527344 18.085938 30.105469 L 20.136719 32.160156 C 20.824219 32.160156 21.164062 31.816406 21.847656 31.816406 Z M 11.585938 21.554688 "/>
<path style=" stroke:none;fill-rule:nonzero;fill:rgb(100%,96.470588%,77.647059%);fill-opacity:1;" d="M 12.953125 20.183594 L 23.21875 30.449219 L 23.558594 28.738281 L 14.664062 19.84375 Z M 6.792969 35.238281 L 10.214844 31.816406 C 10.214844 31.816406 7.820312 32.160156 7.480469 32.503906 L 6.109375 33.871094 C 5.425781 34.554688 5.082031 36.949219 5.082031 36.949219 Z M 31.429688 14.027344 L 38.613281 6.839844 C 37.585938 9.921875 40.667969 12.316406 36.21875 13.34375 C 34.507812 13.683594 32.796875 13.34375 31.429688 14.027344 Z M 28.007812 13.34375 L 37.929688 3.417969 C 34.851562 3.078125 30.058594 1.710938 28.691406 5.128906 C 27.664062 8.210938 29.71875 10.261719 28.007812 13.34375 Z M 33.824219 21.210938 C 37.246094 23.949219 38.273438 27.027344 36.5625 30.792969 C 41.695312 27.027344 38.273438 20.871094 33.824219 21.210938 Z M 11.585938 8.550781 C 17.058594 3.761719 22.191406 6.839844 22.53125 13.34375 C 25.269531 2.394531 12.953125 1.023438 11.585938 8.550781 Z M 11.585938 8.550781 "/>
<path style="fill-rule:nonzero;fill:rgb(100%,96.470588%,77.647059%);fill-opacity:1;stroke-width:1;stroke-linecap:butt;stroke-linejoin:miter;stroke:rgb(84.313725%,67.45098%,0%);stroke-opacity:1;stroke-miterlimit:4;" d="M 10.999782 30.996248 L 10.999782 64.002298 M 10.999782 -49.001468 L 10.999782 20.995106 " transform="matrix(0.342148,0.342148,-0.342148,0.342148,22.533166,13.342061)"/>
<path style="fill:none;stroke-width:1;stroke-linecap:butt;stroke-linejoin:miter;stroke:rgb(50.196078%,40%,0%);stroke-opacity:1;stroke-miterlimit:4;" d="M 10.999782 20.995106 L 23.997841 21.000815 L 27.99944 25.995677 L 23.997841 31.001956 L 10.999782 30.996248 M 10.999782 20.995106 L 15.001381 21.000815 C 13.9967 10.999673 16.000353 -1.005122 24.00355 -10.001582 C 27.99944 -13.997472 30.003093 -17.999071 30.003093 -22.999641 C 29.997385 -37.002381 16.000353 -33.999755 10.999782 -49.001468 C 5.999212 -33.999755 -7.99782 -37.002381 -8.003528 -22.999641 C -8.003528 -17.999071 -5.999875 -13.997472 -2.003985 -10.001582 C 6.00492 -0.999413 8.002865 10.999673 6.998184 21.000815 L 10.999782 20.995106 M 10.999782 30.996248 L 16.999326 31.001956 C 18.997271 44.998988 22.998869 54.001157 10.999782 64.002298 C -0.999304 54.001157 3.002294 44.998988 5.000239 31.001956 L 10.999782 30.996248 M 16.999326 31.001956 L 18.997271 43.001043 C 21.999896 44.998988 32.001038 48.001613 32.001038 48.001613 C 27.000467 41.996362 24.00355 37.001499 22.998869 30.996248 M 15.001381 21.000815 L 21.999896 21.000815 C 21.000924 1.00424 41.003207 5.00013 31.99533 21.999787 C 40.997499 19.00287 47.00275 16.000244 49.999668 8.002756 C 55.999211 -11.000555 33.998983 -19.997016 24.00355 -10.001582 C 16.000353 -1.005122 13.9967 10.999673 15.001381 21.000815 Z M 10.999782 20.995106 L -1.998277 21.000815 L -5.999875 25.995677 L -1.998277 31.001956 L 10.999782 30.996248 M 5.000239 31.001956 L 3.002294 43.001043 C -0.000331603 44.998988 -10.001473 48.001613 -10.001473 48.001613 C -5.000902 41.996362 -2.003985 37.001499 -0.999304 30.996248 M 6.998184 21.000815 L -0.000331603 21.000815 C 0.998641 1.00424 -19.003642 5.00013 -9.995765 21.999787 C -18.997934 19.00287 -25.003185 16.000244 -28.000103 8.002756 C -33.999646 -11.000555 -11.999418 -19.997016 -2.003985 -10.001582 C 6.00492 -0.999413 8.002865 10.999673 6.998184 21.000815 Z M 6.998184 21.000815 " transform="matrix(0.342148,0.342148,-0.342148,0.342148,22.533166,13.342061)"/>
</g>
<pattern id="pattern0" patternUnits="userSpaceOnUse" width="45" height="45" patternTransform="matrix(1.461354,-1.461354,1.461354,1.461354,-56.693434,83.129942)">
<use xlink:href="#surface5"/>
</pattern>
</defs>
<g id="surface1">
<path style="fill-rule:nonzero;fill:url(#pattern0);stroke-width:2;stroke-linecap:butt;stroke-linejoin:miter;stroke:rgb(33.333333%,26.666667%,0%);stroke-opacity:1;stroke-miterlimit:4;" d="M 0.996094 0.99734 L 0.996094 206.00266 C 0.996094 360 69.001406 420 204 479.00266 C 338.998594 420 407.003906 360 407.003906 206.00266 L 407.003906 0.99734 Z M 0.996094 0.99734 " transform="matrix(0.490196,0,0,0.489583,0,0)"/>
</g>
</svg>
